<?xml version="1.0" encoding="UTF-8" standalone="no"?>
<!-- Created with Inkscape (http://www.inkscape.org/) -->

<svg
   version="1.1"
   id="svg48"
   width="1261.6006"
   height="899.21887"
   viewBox="0 0 1261.6006 899.21884"
   xmlns="http://www.w3.org/2000/svg"
   xmlns:svg="http://www.w3.org/2000/svg">
  <defs
     id="defs52">
    <clipPath
       clipPathUnits="userSpaceOnUse"
       id="clipPath230">
      <path
         d="M 0,2267.717 H 2834.646 V 0 H 0 Z"
         id="path228" />
    </clipPath>
  </defs>
  <g
     id="g56"
     transform="matrix(1.3333333,0,0,-1.3333333,-1362.0008,2244.2615)">
    <g
       id="g224"
       transform="translate(-14.413475,112.90556)">
      <g
         id="g226"
         clip-path="url(#clipPath230)">
        <g
           id="g232"
           transform="translate(1440.3633,1513.8564)">
          <path
             d="m 0,0 c 0,0 -36.296,16.482 -70.421,10.708 -34.126,-5.775 -49.876,-17.063 -64.314,-29.401 -14.436,-12.336 -25.987,-28.874 -29.924,-35.962 -3.937,-7.087 -9.976,-20.474 -25.2,-29.925 0,0 5.854,-8.037 12.756,-8.589 0,0 -24.845,-12.147 -29.539,-30.92 -4.692,-18.772 2.209,-38.372 6.349,-46.654 4.143,-8.281 11.043,-13.527 9.387,-16.563 -1.657,-3.037 -13.803,-32.852 -11.318,-47.759 0,0 -15.017,6.447 -31.469,6.096 -16.451,-0.349 -25.726,-3.324 -47.952,-8.4 -22.226,-5.075 -42.527,-9.101 -58.803,-4.549 -16.276,4.549 -30.72,12.051 -33.791,21.074 -3.072,9.025 1.054,22.176 13.534,24.288 0,0 -20.062,-0.288 -30.238,-12.959 -10.176,-12.672 -11.643,-25.186 -5.386,-42.742 5.938,-16.659 38.062,-43.765 62.982,-42.762 0,0 -43.618,-20.26 -62.066,29.551 0,0 -25.866,-39.927 12.441,-72.312 38.306,-32.388 114.571,-36.566 114.571,-36.566 0,0 -13.603,-14.402 -16.164,-16.964 -2.56,-2.56 -2.08,-5.28 0.161,-8.161 2.24,-2.881 53.339,-50.344 157.737,-57.462 0,0 11.93,-0.044 21.234,-5.898 9.307,-5.852 14.259,-7.354 14.259,-7.354 l -0.149,12.609 c 0,0 25.302,-22.928 28.252,-38.799 4.199,-22.593 0.097,-40.505 -3.393,-47.267 0,0 37.275,2.14 51.79,9.935 0,0 37.98,-41.875 39.344,-57.847 1.363,-15.971 0,-25.904 0,-25.904 0,0 32.476,1.216 60.631,32.636 0,0 18.264,23.368 21.845,40.906 0,0 13.243,-13.423 37.939,-13.064 0,0 9.79,0.178 14.905,1.524 5.116,1.346 -11.727,18.288 0,33.925 11.729,15.632 37.856,40.14 43.578,69.962 0,0 5.627,-16.895 29.625,-17.226 0,0 15.305,0.286 9.28,11.892 -6.026,11.605 -8.703,33.029 -3.794,37.494 4.909,4.463 65.168,48.429 71.862,64.944 0,0 13.397,-12.538 29.666,-13.917 16.27,-1.38 53.222,5.238 85.762,14.615 32.541,9.376 70.595,12.96 81.349,4.136 10.756,-8.824 -16.821,-33.368 -16.821,-33.368 0,0 44.121,13.237 48.259,35.575 4.136,22.336 -16.822,39.157 -19.027,39.984 0,0 24.222,19.314 21.272,43.95 -2.948,24.634 -44.065,33.309 -61.067,35.044 -17.002,1.735 -60.721,1.735 -78.243,-8.501 0,0 -2.759,-1.035 -2.272,2.367 0.487,3.402 1.784,12.032 2.977,22.779 1.196,10.746 3.903,25.83 -2.31,33.689 0,0 -2.285,3.381 -0.184,8.407 2.101,5.025 7.211,11.519 1.705,16.659 -5.503,5.137 -22.813,13.59 -57.492,14.457 l -18.17,-0.144 c 0,0 3.309,25.151 -19.195,39.381 -22.504,14.231 -14.646,13.016 -10.059,14.163 4.589,1.147 14.913,7.265 14.913,9.176 0,1.912 -23.443,44.083 -66.672,70.02 C 201.703,19.945 170.379,21.149 155.546,21.909 140.713,22.67 122.771,21.392 94.956,10.07 81.31,4.518 70.969,10.416 83.875,27.418 c 0,0 3.38,4.598 7.402,8.811 4.021,4.213 0.383,4.979 -7.278,9.576 -7.661,4.596 -33.897,20.3 -57.073,0 C 3.754,25.504 0,0 0,0"
             style="fill:#000000;fill-opacity:1;fill-rule:nonzero;stroke:none"
             id="path234" />
        </g>
        <g
           id="g236"
           transform="translate(1440.3633,1513.8564)">
          <path
             d="m 0,0 c 0,0 -36.296,16.482 -70.421,10.708 -34.126,-5.775 -49.876,-17.063 -64.314,-29.401 -14.436,-12.336 -25.987,-28.874 -29.924,-35.962 -3.937,-7.087 -9.976,-20.474 -25.2,-29.925 0,0 5.854,-8.037 12.756,-8.589 0,0 -24.845,-12.147 -29.539,-30.92 -4.692,-18.772 2.209,-38.372 6.349,-46.654 4.143,-8.281 11.043,-13.527 9.387,-16.563 -1.657,-3.037 -13.803,-32.852 -11.318,-47.759 0,0 -15.017,6.447 -31.469,6.096 -16.451,-0.349 -25.726,-3.324 -47.952,-8.4 -22.226,-5.075 -42.527,-9.101 -58.803,-4.549 -16.276,4.549 -30.72,12.051 -33.791,21.074 -3.072,9.025 1.054,22.176 13.534,24.288 0,0 -20.062,-0.288 -30.238,-12.959 -10.176,-12.672 -11.643,-25.186 -5.386,-42.742 5.938,-16.659 38.062,-43.765 62.982,-42.762 0,0 -43.618,-20.26 -62.066,29.551 0,0 -25.866,-39.927 12.441,-72.312 38.306,-32.388 114.571,-36.566 114.571,-36.566 0,0 -13.603,-14.402 -16.164,-16.964 -2.56,-2.56 -2.08,-5.28 0.161,-8.161 2.24,-2.881 53.339,-50.344 157.737,-57.462 0,0 11.93,-0.044 21.234,-5.898 9.307,-5.852 14.259,-7.354 14.259,-7.354 l -0.149,12.609 c 0,0 25.302,-22.928 28.252,-38.799 4.199,-22.593 0.097,-40.505 -3.393,-47.267 0,0 37.275,2.14 51.79,9.935 0,0 37.98,-41.875 39.344,-57.847 1.363,-15.971 0,-25.904 0,-25.904 0,0 32.476,1.216 60.631,32.636 0,0 18.264,23.368 21.845,40.906 0,0 13.243,-13.423 37.939,-13.064 0,0 9.79,0.178 14.905,1.524 5.116,1.346 -11.727,18.288 0,33.925 11.729,15.632 37.856,40.14 43.578,69.962 0,0 5.627,-16.895 29.625,-17.226 0,0 15.305,0.286 9.28,11.892 -6.026,11.605 -8.703,33.029 -3.794,37.494 4.909,4.463 65.168,48.429 71.862,64.944 0,0 13.397,-12.538 29.666,-13.917 16.27,-1.38 53.222,5.238 85.762,14.615 32.541,9.376 70.595,12.96 81.349,4.136 10.756,-8.824 -16.821,-33.368 -16.821,-33.368 0,0 44.121,13.237 48.259,35.575 4.136,22.336 -16.822,39.157 -19.027,39.984 0,0 24.222,19.314 21.272,43.95 -2.948,24.634 -44.065,33.309 -61.067,35.044 -17.002,1.735 -60.721,1.735 -78.243,-8.501 0,0 -2.759,-1.035 -2.272,2.367 0.487,3.402 1.784,12.032 2.977,22.779 1.196,10.746 3.903,25.83 -2.31,33.689 0,0 -2.285,3.381 -0.184,8.407 2.101,5.025 7.211,11.519 1.705,16.659 -5.503,5.137 -22.813,13.59 -57.492,14.457 l -18.17,-0.144 c 0,0 3.309,25.151 -19.195,39.381 -22.504,14.231 -14.646,13.016 -10.059,14.163 4.589,1.147 14.913,7.265 14.913,9.176 0,1.912 -23.443,44.083 -66.672,70.02 C 201.703,19.945 170.379,21.149 155.546,21.909 140.713,22.67 122.771,21.392 94.956,10.07 81.31,4.518 70.969,10.416 83.875,27.418 c 0,0 3.38,4.598 7.402,8.811 4.021,4.213 0.383,4.979 -7.278,9.576 -7.661,4.596 -33.897,20.3 -57.073,0 C 3.754,25.504 0,0 0,0 Z"
             style="fill:none;stroke:#000000;stroke-width:1;stroke-linecap:butt;stroke-linejoin:miter;stroke-miterlimit:10;stroke-dasharray:none;stroke-opacity:1"
             id="path238" />
        </g>
        <g
           id="g240"
           transform="translate(1454.4375,1499.252)">
          <path
             d="m 0,0 c 0,0 1.057,72.83 60.248,51.959 0.688,-0.242 0.954,-1.082 0.529,-1.674 C 58.075,46.515 50.033,34.418 51.359,25.712 52.946,15.278 63.072,5.296 61.641,4.388 c 0,0 -16.827,9.387 -15.496,25.505 0,0 -3.158,-14.955 7.311,-27.25 0,0 -16.417,8.011 -8.532,41.132 0,0 -8.871,-23.461 2.958,-39.429 0,0 -11.294,8.407 -9.232,33.027 0,0 -2.99,-19.015 2.46,-30.067 0,0 -11.053,9.993 -7.722,30.132 0,0 -4.694,-16.05 1.968,-27.861 0,0 -9.539,4.542 -5.299,33.16 0,0 -13.477,-26.649 8.176,-51.18 0,0 -12.87,6.815 -16.352,19.382 0,0 1.15,-13.028 14.172,-24.384 0,0 -9.058,-1.045 -14.055,-2.863 C 17,-18.125 8.406,-1.854 0,0"
             style="fill:#97cc23;fill-opacity:1;fill-rule:nonzero;stroke:none"
             id="path242" />
        </g>
        <g
           id="g244"
           transform="translate(1459.166,1468.1763)">
          <path
             d="m 0,0 c 0,0 41.747,30.532 117.148,14.626 75.403,-15.904 73.447,-89.426 73.451,-93.686 0.03,-26.247 -3.111,-45.856 -19.3,-59.062 0,0 -2.87,30.021 -9.459,37.842 0,0 8.14,-23.322 3.079,-39.822 0,0 -7.26,48.402 -23.761,67.542 0,0 19.142,-43.781 19.362,-67.542 0,0 -9.68,33.221 -15.401,41.581 0,0 8.141,-25.741 8.36,-44.441 0,0 -4.178,13.861 -8.36,17.38 0,0 3.74,-13.859 2.86,-24.201 0,0 -15.622,-10.78 -23.76,-18.481 0,0 -49.196,26.695 -74.371,70.744 C 24.67,-53.471 11.676,-5.775 0,0"
             style="fill:#97cc23;fill-opacity:1;fill-rule:nonzero;stroke:none"
             id="path246" />
        </g>
        <g
           id="g248"
           transform="translate(1524.6699,1504.6157)">
          <path
             d="m 0,0 c 0,0 23.475,18.593 52.759,20.453 29.285,1.859 93.073,-13.086 127.88,-45.905 25.976,-24.492 26.912,-34.512 26.446,-35.674 -0.466,-1.163 -9.296,-11.621 -24.403,-6.973 -15.106,4.649 -29.052,-1.184 -29.052,-1.184 0,0 -6.741,18.616 -26.265,35.35 0,0 22.416,-28.467 20.928,-37.658 0,0 -13.649,28.437 -36.895,46.114 0,0 30.827,-28.944 29.435,-48.957 0,0 -10.093,29.466 -33.41,47.536 0,0 26.45,-28.567 25.579,-40.401 0,0 -25.936,50.077 -77.611,56.382 -42.014,5.125 -49.643,0.293 -50.775,1.312 1.083,1.579 5.218,7.067 12.317,10.173 0,0 -11.893,-3.23 -15.558,-6.834 0,0 6.793,8.663 26.871,17.485 0,0 -4.4,0.313 -28.246,-11.219"
             style="fill:#97cc23;fill-opacity:1;fill-rule:nonzero;stroke:none"
             id="path250" />
        </g>
        <g
           id="g252"
           transform="translate(1669.4814,1412.25)">
          <path
             d="m 0,0 c 0,0 15.257,10.26 37.092,9.734 21.833,-0.526 34.462,-13.153 39.46,-21.309 4.998,-8.154 7.101,-25.708 7.101,-27.55 0,0 -21.888,-2.972 -23.974,-4.253 0,0 -8.577,26.929 -40.138,41.852 0,0 27.617,-21.784 31.219,-34.993 0,0 -12.179,15.61 -22.988,23.158 0,0 3.262,-3.946 3.604,-6.347 0,0 -15.584,14.751 -31.376,17.838 0,0 -1.965,0.694 0,1.87"
             style="fill:#97cc23;fill-opacity:1;fill-rule:nonzero;stroke:none"
             id="path254" />
        </g>
        <g
           id="g256"
           transform="translate(1572.4287,1293.2974)">
          <path
             d="m 0,0 c 0,0 -43.627,25.606 -49.634,39.2 0,0 -42.361,-38.885 -16.439,-88.518 0,0 61.963,44.575 66.073,49.318"
             style="fill:#97cc23;fill-opacity:1;fill-rule:nonzero;stroke:none"
             id="path258" />
        </g>
        <g
           id="g260"
           transform="translate(1454.4375,1489.0449)">
          <path
             d="m 0,0 c 0,0 -31.15,31.879 -77.246,24.555 -46.095,-7.323 -67.226,-28.514 -80.078,-43.655 -12.288,-14.473 -4.51,-21.751 -25.745,-39.763 0,0 -2.612,-2.167 0,-2.821 2.611,-0.655 37.51,0.872 41.655,6.98 4.144,6.107 27.92,46.679 107.971,41.225 0,0 -5.061,6.789 -44.572,5.159 0,0 35.642,4.073 53.361,-2.036 0,0 -5.907,10.281 -56.618,8.705 0,0 37.066,4.412 59.467,-4.591 0,0 -12.626,17.979 -85.944,4.591 0,0 56.008,14.511 89.407,1.885 0,0 9.376,-4.358 18.342,-0.234"
             style="fill:#97cc23;fill-opacity:1;fill-rule:nonzero;stroke:none"
             id="path262" />
        </g>
        <g
           id="g264"
           transform="translate(1448.2539,1461.3857)">
          <path
             d="m 0,0 c 0,0 -48.972,21.946 -93.553,-7.383 -44.58,-29.329 -64.524,-82.124 -58.072,-117.906 6.452,-35.781 23.654,-66.885 30.207,-73.984 0,0 19.679,30.659 21.949,37.8 l -8.7,-8.743 27.61,36.688 c 0,0 -30.636,-32.528 -34.417,-37.823 0,0 22.936,31.713 30.055,38.831 0,0 -19.392,-14.237 -29.211,-26.265 0,0 16.937,36.084 82.479,67.014 0,0 -32.648,-23.32 -36.085,-29.457 0,0 13.01,9.819 30.684,17.429 0,0 -9.573,-5.647 -13.992,-12.274 0,0 35.594,24.547 47.866,34.857 C 9.096,-70.906 42.937,-33.01 0,0"
             style="fill:#97cc23;fill-opacity:1;fill-rule:nonzero;stroke:none"
             id="path266" />
        </g>
        <g
           id="g268"
           transform="translate(1276.1948,1414.1025)">
          <path
             d="m 0,0 c 0,0 -34.538,-11.647 -31.325,-36.547 3.212,-24.901 13.655,-39.36 13.655,-39.36 0,0 35.744,68.678 41.367,75.907 0,0 -16.186,-17.682 -26.718,-40.77 0,0 6.887,19.645 19.847,39.695 0,0 -16.605,-21.265 -24.707,-39.491 0,0 13.772,32.123 20.86,40.566 0,0 -19.847,-24.254 -28.15,-48.409 0,0 11.948,33.36 24.505,49.359 0,0 -16.405,-12.961 -23.291,-28.15 0,0 7.865,20.377 13.957,27.2"
             style="fill:#97cc23;fill-opacity:1;fill-rule:nonzero;stroke:none"
             id="path270" />
        </g>
        <g
           id="g272"
           transform="translate(1704.2891,1363.1064)">
          <path
             d="m 0,0 c 0,0 -7.579,28.317 -41.479,39.883 0,0 7.831,-8.526 11.391,-29.174 0,0 -2.375,11.907 -12.342,19.838 0,0 9.967,-19.601 12.106,-40.011 0,0 -3.561,17.088 -13.528,32.04 0,0 9.699,-25.394 8.17,-34.65 0,0 0.371,6.724 -8.17,17.839 0,0 2.569,-11.552 3.281,-20.096 0,0 -0.812,6.242 -5.181,11.513 0,0 -0.237,-2.137 -1.425,-7.12 0,0 1.325,-4.789 0.849,-6.688 0,0 -0.849,0.991 -2.51,2.89 0,0 -0.949,-2.61 -2.609,-5.695 0,0 42.849,17.503 51.447,19.431"
             style="fill:#97cc23;fill-opacity:1;fill-rule:nonzero;stroke:none"
             id="path274" />
        </g>
        <g
           id="g276"
           transform="translate(1427.002,1068.7168)">
          <path
             d="m 0,0 c 0,0 28.32,7.211 32.439,10.816 0,0 -10.297,-18.023 -27.804,-21.628 z"
             style="fill:#97cc23;fill-opacity:1;fill-rule:nonzero;stroke:none"
             id="path278" />
        </g>
        <g
           id="g280"
           transform="translate(1467.3848,1070.3672)">
          <path
             d="m 0,0 c 0,0 -17.109,-24.514 -39.072,-26.812 0,0 -9.705,10.982 -11.747,22.218 0,0 -2.554,-1.022 -4.085,-1.022 0,0 6.383,-8.171 8.17,-14.556 0,0 -7.15,9.703 -10.98,13.533 0,0 -0.256,0 -3.32,-0.51 0,0 10.725,-13.79 9.704,-21.705 0,0 -6.384,15.833 -13.024,20.683 l -3.319,-0.255 c 0,0 8.937,-9.449 10.214,-25.792 0,0 -4.086,16.6 -13.791,25.026 0,0 -0.766,-0.255 -3.064,-0.511 l -2.298,-0.254 c 0,0 12.514,-9.45 11.237,-22.729 0,0 -0.511,12.257 -13.79,21.961 l -2.299,-0.254 c 0,0 9.703,-10.726 8.937,-18.132 0,0 -6.127,15.423 -12.768,16.649 0,0 6.895,-11.798 7.661,-20.224 0,0 -3.83,14.401 -13.279,20.224 0,0 11.748,-17.67 9.449,-24.31 0,0 -1.96,14.586 -13.453,23.218 0,0 7.323,-12.747 7.579,-16.323 0,0 -1.787,6.639 -11.491,15.834 0,0 -2.043,-0.767 -5.109,0 0,0 33.709,-26.56 21.708,-72.015 0,0 89.891,5.106 98.064,72.526 0,0 -5.873,-16.345 -7.151,-18.132 0,0 8.428,25.281 2.299,42.903 0,0 1.787,-31.922 -13.025,-52.096 0,0 12.514,26.56 6.895,45.711 0,0 -2.096,-30.133 -12.795,-42.263 0,0 7.687,9.576 7.943,37.409"
             style="fill:#97cc23;fill-opacity:1;fill-rule:nonzero;stroke:none"
             id="path282" />
        </g>
        <g
           id="g284"
           transform="translate(1438.8809,984.3096)">
          <path
             d="m 0,0 c 0,0 26.965,-27.292 29.574,-34.252 0,0 0.871,23.053 -2.174,41.754 0,0 9.568,-30.88 5.653,-46.971 0,0 1.728,-3.61 2.242,-6.688 0,0 6.349,19.735 -1.883,53.659 0,0 16.078,-34.591 6.317,-69.04 0,0 7.847,2.679 6.699,53.97 0,0 9.225,-25.645 0.115,-56.459 0,0 48.783,21.304 54.707,88.552 0,0 -10.803,4.183 -17.422,12.198 0,0 0.25,-18.569 -5.701,-28.121 0,0 3.785,15.685 3.605,32.63 0,0 -1.082,0.542 -2.884,2.886 0,0 0.721,-10.456 -1.622,-18.21 0,0 0.18,17.488 -2.525,23.798 0,0 -3.551,3.786 -4.568,5.41 l -1.022,1.621 c 0,0 3.301,-15.505 1.022,-27.584 0,0 -1.201,32.094 -10.215,42.011 0,0 -0.182,-2.347 -0.541,-3.968 -0.361,-1.624 6.851,-12.621 5.949,-30.469 0,0 -1.983,13.16 -8.114,24.701 0,0 -0.181,-1.986 -0.54,-3.245 -0.361,-1.264 5.95,-13.886 3.064,-33.537 0,0 -0.902,11.721 -5.228,26.143 0,0 -1.262,-3.787 -1.443,-4.328 -0.179,-0.539 2.344,-18.932 1.263,-22.535 0,0 -1.637,16.046 -3.704,19.11 C 50.624,43.036 38.706,13.934 0,0"
             style="fill:#97cc23;fill-opacity:1;fill-rule:nonzero;stroke:none"
             id="path286" />
        </g>
        <g
           id="g288"
           transform="translate(1626.1738,1098.9834)">
          <path
             d="m 0,0 c 0,0 -50.222,-84.621 -55.037,-84.621 0,0 -0.532,-5.045 -1.604,-6.547 0,0 -0.429,2.145 -1.714,4.074 0,0 -2.145,-18.437 6.861,-29.159 0,0 -12.01,13.972 -11.582,24.693 0,0 -5.143,-12.257 7.293,-26.837 0,0 -14.364,12.005 -12.863,23.799 0,0 -5.577,-2.145 1.071,-18.01 0,0 -5.362,7.503 -6.432,13.935 0,0 -5.79,-7.714 -5.36,-12.433 0.428,-4.718 19.309,-20.799 39.672,-19.727 0,0 -7.512,9.861 2.995,29.373 10.505,19.511 45.024,57.033 45.239,66.037 C 8.754,-26.415 -2.537,-12.177 0,0"
             style="fill:#97cc23;fill-opacity:1;fill-rule:nonzero;stroke:none"
             id="path290" />
        </g>
        <g
           id="g292"
           transform="translate(1394.0229,1230.5215)">
          <path
             d="m 0,0 c 16.049,-16.655 24.225,-30.585 24.225,-30.585 0,0 -12.415,-6.359 -24.225,-6.056 z"
             style="fill:#97cc23;fill-opacity:1;fill-rule:nonzero;stroke:none"
             id="path294" />
        </g>
        <g
           id="g296"
           transform="translate(1306.8105,1270.1914)">
          <path
             d="m 0,0 c 0,0 -11.507,-15.142 -3.937,-81.157 0,0 52.993,-0.908 58.444,0 0,0 3.937,29.98 9.388,41.487 0,0 -6.057,-29.374 -4.542,-40.276 l 1.525,0.303 c 0,0 1.944,32.782 8.968,42.548 0,0 -8.221,-32.234 -4.185,-40.305 0,0 2.391,24.662 7.922,36.62 0,0 -5.531,-23.766 -3.737,-30.044 1.794,-6.278 10.015,28.698 7.324,30.044 -2.691,1.344 -28.847,29.842 -30.491,40.78 0,0 -2.094,-12.082 -4.335,-15.52 0,0 2.092,15.993 0.897,21.973 0,0 -1.494,-7.176 -2.541,-7.325 -1.047,-0.149 1.047,3.886 -0.598,7.325 -1.644,3.437 -2.69,-10.613 -3.887,-12.855 -1.195,-2.242 -0.299,2.69 -2.092,4.484 -1.793,1.793 -2.391,-13.154 -2.391,-13.154 0,0 -0.897,4.036 -2.392,6.129 -1.494,2.092 -1.943,-11.659 -3.438,-13.901 0,0 -0.299,3.587 -1.196,5.082 -0.897,1.495 -2.242,-5.83 -4.334,-5.53 C 18.278,-22.994 6.681,-7.5 0,0"
             style="fill:#97cc23;fill-opacity:1;fill-rule:nonzero;stroke:none"
             id="path298" />
        </g>
        <g
           id="g300"
           transform="translate(1592.3018,1162.5449)">
          <path
             d="m 0,0 c 0,0 36.97,-31.592 11.763,-72.594 -25.205,-41.001 -44.657,-70.914 -57.281,-70.577 -12.625,0.336 -39.848,46.378 -42.874,56.462 -3.023,10.082 -4.367,21.51 -3.359,24.533 1.008,3.025 3.025,-10.418 4.706,-11.09 0,0 -1.622,10.957 1.696,15.102 3.316,4.145 0,-24.669 15.34,-41.047 0,0 -13.682,25.913 -7.463,44.157 0,0 1.866,-34.491 15.547,-49.586 0,0 -16.825,34.844 -8.622,52.311 0,0 2.116,-29.11 11.115,-34.933 0,0 -10.321,21.965 -4.764,38.637 0,0 5.029,-24.609 10.056,-25.668 0,0 -7.939,19.052 -2.646,29.639 0,0 2.91,-20.113 6.881,-23.024 0,0 -3.971,25.141 -0.794,29.111 0,0 2.645,-23.259 7.675,-24.995 0,0 -4.723,16.525 -2.494,29.228 0,0 4.081,-22.229 7.787,-23.289 0,0 -5.293,16.938 -2.913,26.73 0,0 2.382,-11.115 6.354,-14.821 0,0 -1.881,11.38 -1.47,18.262 l 2.792,2.381 c 0,0 1.852,-5.822 3.704,-7.409 0,0 -0.262,6.878 0.265,10.056 l 4.234,3.704 3.176,-7.674 1.323,11.115 3.441,2.646 2.91,-3.705 1.061,6.616 z"
             style="fill:#97cc23;fill-opacity:1;fill-rule:nonzero;stroke:none"
             id="path302" />
        </g>
        <g
           id="g304"
           transform="translate(1687.7188,1217.9097)">
          <path
             d="m 0,0 c 0,0 -36.505,-14.544 -40.782,-17.966 0,0 0.284,-13.689 -1.141,-17.397 0,0 -1.997,9.696 -5.419,12.834 0,0 1.711,-32.227 -1.427,-37.36 0,0 -1.139,22.529 -6.557,32.511 0,0 0.284,-15.114 0,-18.537 0,0 -2.283,13.974 -5.989,15.97 0,0 -18.538,-11.978 -19.964,-14.545 -1.426,-2.566 8.84,-10.875 8.84,-10.875 l -0.569,10.021 c 0,0 9.981,-25.097 11.121,-29.66 0,0 -1.426,14.83 -3.992,24.811 0,0 11.692,-8.555 14.544,-42.492 2.852,-33.939 8.841,-47.627 24.812,-58.749 0,0 4.587,-2.757 3.256,5.396 -1.332,8.156 -4.385,22.246 3.963,45.369 C -10.953,-77.55 2.604,-29.383 0,0"
             style="fill:#97cc23;fill-opacity:1;fill-rule:nonzero;stroke:none"
             id="path306" />
        </g>
        <g
           id="g308"
           transform="translate(1752.833,1237.1929)">
          <path
             d="m 0,0 c 0,0 -8.097,-1.604 -9.903,-2.894 0,0 -2.065,-19.353 -6.451,-26.063 0,0 1.548,19.096 0,23.742 -1.549,4.644 -3.614,-33.031 -11.354,-39.741 0,0 5.16,18.322 4.901,38.191 0,0 -3.612,-0.774 -4.901,-1.29 -1.291,-0.516 -3.098,-47.996 -9.807,-60.899 0,0 6.709,43.609 3.871,59.093 0,0 -5.419,-51.867 -15.224,-76.639 0,0 12.9,55.221 6.192,72.252 0,0 -4.386,-58.318 -12.128,-71.221 0,0 7.742,41.547 7.742,59.093 0,17.547 -11.871,-81.286 -22.193,-94.703 0,0 3.662,-1.216 4.467,0.441 0.805,1.658 8.43,18.455 10.198,24.754 0,0 -2.983,-17.35 -4.863,-20.776 -1.878,-3.425 10.61,16.687 10.61,16.687 0,0 -0.554,-7.515 -1.328,-9.173 -0.773,-1.656 20.125,23.758 22.695,32.754 0,0 0.857,-6.211 -0.214,-10.066 C -28.762,-90.314 15.61,-50.466 0,0"
             style="fill:#97cc23;fill-opacity:1;fill-rule:nonzero;stroke:none"
             id="path310" />
        </g>
        <g
           id="g312"
           transform="translate(1945.5586,1217.2021)">
          <path
             d="m 0,0 c 0,0 10.49,7.162 -1.371,13.678 -11.859,6.518 -38.576,-2.477 -38.576,-2.477 0,0 25.412,-0.417 39.947,-11.201"
             style="fill:#000000;fill-opacity:1;fill-rule:nonzero;stroke:none"
             id="path314" />
        </g>
        <g
           id="g316"
           transform="translate(1945.5586,1217.2021)">
          <path
             d="m 0,0 c 0,0 10.49,7.162 -1.371,13.678 -11.859,6.518 -38.576,-2.477 -38.576,-2.477 0,0 25.412,-0.417 39.947,-11.201 z"
             style="fill:none;stroke:#000000;stroke-width:1;stroke-linecap:butt;stroke-linejoin:miter;stroke-miterlimit:10;stroke-dasharray:none;stroke-opacity:1"
             id="path318" />
        </g>
        <g
           id="g320"
           transform="translate(1948.5,1214.6509)">
          <path
             d="m 0,0 c 0,0 6.604,5.439 7.67,10.829 1.066,5.387 -2.367,10.421 -4.086,11.604 -1.719,1.185 -8.23,6.632 -22.264,4.678 -14.034,-1.953 -34.486,-6.533 -46.777,-19.709 0,0 46.863,3.337 72.267,-19.091 25.403,-22.427 14.419,-41.319 14.419,-41.319 0,0 -6.321,-9.258 -16.377,-14.515 0,0 11.468,16.504 -1.496,24.047 -12.962,7.543 -50.535,6.446 -82.262,-1.902 -31.727,-8.351 -55.196,-13.334 -60.386,-13.958 -5.191,-0.623 -25.651,-0.461 -25.651,-0.461 0,0 -5.054,0.137 -10.348,2.869 -5.292,2.732 -15.067,9.678 -15.325,14.824 -0.257,5.144 8.583,9.423 8.702,30.794 0,0 14.97,8.748 31.471,7.809 0,0 -19.166,0.83 -31.393,-5.501 0,0 0.857,3.492 0.77,3.932 -0.086,0.441 18.36,6.214 26.359,5.731 0,0 -14.119,0.781 -26.658,-3.698 l -0.062,2.43 c 0,0 14.706,4.233 24.065,4.011 0,0 -15.04,-0.112 -24.51,-2.674 l -0.015,3.549 c 0,0 13.607,2.652 21.217,2.421 0,0 -17.643,0.693 -21.563,-0.923 v 3.806 c 0,0 13.607,1.73 18.797,1.269 0,0 -14.76,0.808 -19.027,0 l -0.116,3.574 c 0,0 12.8,1.729 17.413,1.615 0,0 -15.568,0.23 -17.644,-0.347 l -0.229,2.752 c 0,0 13.26,1.631 21.908,1.976 0,0 -20.064,1.038 -22.486,0 0,0 -0.834,1.947 0.115,2.705 0.951,0.761 14.338,3.513 20.983,3.418 6.646,-0.093 28.433,-4.003 28.433,-4.003 0,0 -5.789,-1.883 -9.928,-1.608 -4.138,0.277 6.758,-1.872 15.045,-0.492 8.288,1.383 -9.666,-3.068 -9.666,-3.068 0,0 15.038,-0.004 17.954,1.072 2.916,1.076 -7.52,-3.528 -10.743,-3.834 -3.222,-0.307 13.506,0.614 17.65,1.842 4.141,1.227 -7.981,-6.6 -11.357,-6.753 -3.378,-0.154 10.589,0.153 16.268,4.143 5.676,3.99 -2.457,-6.292 -13.2,-7.366 0,0 4.625,-0.093 16.479,4.233 0,0 0.355,-2.903 -8.736,-6.015 -9.094,-3.11 9.332,1.676 11.724,3.35 2.393,1.676 -0.478,-5.024 -17.947,-9.093 0,0 13.854,1.394 19.124,3.598 5.27,2.205 -14.493,-8.189 -26.203,-9.653 -11.712,-1.464 14.198,-1.17 26.642,6.587 0,0 0.292,-4.244 -39.524,-12.735 0,0 33.084,3.367 38.94,7.32 0,0 1.023,-3.367 -3.514,-4.831 -4.539,-1.463 -29.029,-4.415 -35.252,-4.633 -6.222,-0.219 -23.174,-1.383 -23.174,-1.383 0,0 -16.695,-1.894 -18.712,-19.726 -2.016,-17.832 30.78,-16.133 30.78,-16.133 0,0 -3.396,0.849 -6.05,2.229 -2.655,1.379 24.057,-2.583 53.304,10.877 0,0 -40.554,-12.922 -63.08,-6.155 0,0 35.426,0.367 42.401,2.753 0,0 -41.668,-1.469 -47.174,0.735 0,0 34.693,0.184 35.426,1.101 0,0 -31.7,-0.565 -38.362,3.67 0,0 29.367,0 33.59,0.736 0,0 -31.938,0 -33.224,4.221 0,0 22.027,-2.385 30.838,-0.734 0,0 -24.965,0.734 -27.167,4.589 0,0 27.717,-2.386 33.957,-1.101 0,0 -25.013,0.564 -30.635,4.795 0,0 24.326,-1.763 29.966,-1.058 0,0 -19.389,0.706 -23.973,2.821 0,0 39.839,-0.705 42.306,0 0,0 -24.326,0.352 -28.204,1.41 -3.878,1.057 33.251,2.516 33.251,2.516 l -6.908,1.885 c 0,0 16.344,-0.054 19.028,0.042 2.683,0.096 13.951,-0.111 13.156,14.78 -0.797,14.89 -20.02,34.515 -19.278,55.029 0,0 59.994,24.164 109.607,4.368 C 50.953,37.078 8.566,-3.212 6.937,-3.911 5.307,-4.609 0,0 0,0"
             style="fill:#d6d113;fill-opacity:1;fill-rule:nonzero;stroke:none"
             id="path322" />
        </g>
        <g
           id="g324"
           transform="translate(1284.5825,1360.4502)">
          <path
             d="m 0,0 c 0,0 -46.041,-63.365 -32.822,-108.039 13.219,-44.674 14.937,-58.351 15.218,-61.085 0,0 10.069,-1.72 13.423,-1.384 0,0 1.341,11.735 0.839,17.771 0,0 3.332,-14.674 3.342,-17.815 h 1.52 c 0,0 0.837,7.754 1.005,12.617 0,0 4.527,-9.891 5.029,-11.568 0.505,-1.677 -3.411,17.363 3.306,62.307 0,0 2.051,13.736 0,22.724 0,0 -4.959,-24.321 -7.338,-39.654 0,0 0.929,42.828 7.338,55.253 0,0 -13.163,-28.261 -13.683,-59.747 0,0 -0.528,33.839 6.08,58.69 0,0 -10.574,-30.931 -11.367,-66.357 0,0 -1.173,51.525 10.31,77.724 0,0 -10.574,-17.448 -16.39,-43.356 0,0 1.257,37.17 13.748,57.368 0,0 -0.53,6.344 -0.53,8.725 0,2.378 -4.493,-8.725 -7.138,-11.104 0,0 5.816,15.597 6.61,19.034 0.792,3.437 0.264,5.642 0.264,5.642 l -5.552,-7.493 c 0,0 3.701,15.07 5.816,17.449 C 1.143,-9.918 0,0 0,0"
             style="fill:#97cc23;fill-opacity:1;fill-rule:nonzero;stroke:none"
             id="path326" />
        </g>
        <g
           id="g328"
           transform="translate(1362.3228,1295.3413)">
          <path
             d="m 0,0 c 0,0 4.954,-17.125 10.347,-22.375 11.142,-10.854 31.519,-32.584 36.154,-39.87 4.636,-7.285 24.104,-28.608 24.104,-28.608 0,0 33.939,13.907 36.437,18.079 2.5,4.171 -4.882,20.033 -2.957,27.348 0,0 4.495,-15.596 8.666,-16.819 0,0 -4.814,24.134 -2.566,31.515 0,0 2.245,-28.104 6.418,-31.704 0,0 -5.456,33.251 -2.247,42.267 0,0 0.321,-34.956 5.778,-39.769 0,0 -3.853,31.394 -2.568,39.769 0,0 2.889,-26.791 4.814,-31.195 v 7.794 c 0,0 1.604,-4.172 4.493,-5.456 0,0 -28.658,65.404 27,100.667 l -9.677,12.304 -5.835,-17.054 4.265,19.298 -2.693,3.141 -10.772,-30.293 8.079,33.21 -2.694,3.366 -14.361,-36.127 11.22,40.616 -3.142,3.589 -18.625,-54.527 15.709,58.118 -2.692,2.692 c 0,0 -22.45,-59.016 -25.812,-75.172 0,0 13.469,68.441 21.772,80.782 0,0 -18.626,-28.273 -26.479,-53.854 0,0 9.617,37.698 14.906,50.937 0,0 -18.945,-26.254 -23.433,-48.918 l 5.386,27.6 c 0,0 -9.425,-5.833 -14.361,-24.234 0,0 0.897,11.444 1.571,14.362 C 76.878,64.396 4.13,14.143 0,0"
             style="fill:#97cc23;fill-opacity:1;fill-rule:nonzero;stroke:none"
             id="path330" />
        </g>
        <g
           id="g332"
           transform="translate(1055.2954,1297.709)">
          <path
             d="m 0,0 c 0,0 -27.234,-38.53 41.789,-67.722 0,0 15.389,-5.24 27.981,-4.689 0,0 -8.23,-14.524 -26.035,-16.996 -17.807,-2.474 -35.86,-4.452 -54.655,26.708 0,0 -27.79,-73.362 125.738,-85.768 0,0 -26.575,5.142 -31.808,10.376 0,0 21.137,-5.033 31.808,-4.228 10.669,0.805 -23.756,6.844 -23.756,6.844 0,0 27.58,-1.208 21.742,8.054 -5.838,9.261 -23.352,27.983 -23.554,35.836 -0.201,7.85 10.97,13.277 10.97,13.277 l -3.717,1.352 c 0,0 4.055,1.014 6.758,0.676 0,0 -0.844,1.727 -2.534,2.046 -1.688,0.319 7.703,0.259 10.598,0 2.894,-0.259 9.32,0 9.32,0 0,0 -3.579,2.32 -7.778,2.32 -4.201,0 15.868,1.245 20.847,-0.156 4.977,-1.399 -4.716,2.466 -9.541,3.003 0,0 18.765,-0.805 21.982,-1.877 3.215,-1.074 -9.114,3.483 -16.889,3.753 0,0 27.88,-2.681 31.9,-4.021 4.022,-1.342 -14.743,4.021 -19.57,4.824 0,0 19.839,-2.412 24.665,-3.752 4.824,-1.341 -10.992,8.042 -26.004,7.238 0,0 19.301,1.698 30.739,-4.022 0,0 -9.532,7.148 -21.685,8.341 0,0 19.779,-2.145 24.067,-4.766 0,0 -3.097,6.91 -30.024,8.339 0,0 25.497,-0.237 28.118,-2.383 0,0 -6.433,6.672 -29.785,7.149 0,0 18.823,0.954 27.64,-1.905 0,0 3.575,4.765 -40.031,5.242 0,0 19.062,1.667 32.168,0.953 13.105,-0.715 -22.161,4.765 -48.849,-0.953 0,0 16.084,4.928 45.42,5.118 0,0 -0.94,2.256 -3.573,2.82 0,0 17.623,-1.655 24.939,-12.021 7.317,-10.364 -3.252,-19.11 -4.938,-20.29 -1.685,-1.179 -15.681,-3.141 -27.976,-3.664 -12.297,-0.523 -38.487,-0.101 -45.529,-7.414 -7.042,-7.314 -2.124,-20.864 25.542,-32.621 0,0 -10.657,2.753 -14.258,4.555 0,0 26.116,-13.508 34.402,-16.21 0,0 -22.515,7.745 -28.64,10.266 -6.122,2.522 23.596,-12.787 34.043,-16.03 0,0 -24.676,7.746 -31.159,10.627 -6.485,2.882 19.452,-11.348 26.296,-13.869 0,0 -15.025,4.412 -25.452,8.882 -10.426,4.467 14.895,-10.427 22.938,-12.81 0,0 -16.446,4.098 -20.905,6.901 -4.458,2.804 11.978,-11.085 25.612,-12.742 0,0 -8.537,1.402 -23.572,6.117 0,0 4.331,-7.899 25.101,-13.888 0,0 -17.584,3.439 -24.338,7.771 0,0 7.137,-7.9 21.916,-12.614 0,0 -15.035,3.059 -22.807,7.646 0,0 9.046,-8.029 16.947,-11.851 0,0 -10.704,3.568 -17.202,7.136 0,0 2.549,-5.606 7.9,-7.136 0,0 -7.517,0.891 -10.321,3.822 -2.804,2.931 -1.16,-5.834 -9.652,-15.151 -8.493,-9.314 56.659,-42.362 94.857,-46.703 38.194,-4.342 72.34,-3.763 80.153,-2.605 0,0 -0.118,-1.571 -3.889,-2.325 -3.77,-0.753 21.873,1.959 28.409,7.014 0,0 -7.793,-5.502 -14.078,-7.137 -6.285,-1.636 9.805,0.625 14.078,2.89 0,0 -1.157,-2.12 -4.727,-3.448 -3.569,-1.329 13.275,2.943 14.533,4.455 0,0 -2.013,-3.884 -5.029,-4.707 -3.017,-0.826 20.113,3.7 24.136,6.214 0,0 -2.378,-2.118 -3.396,-3.011 -1.017,-0.889 11.201,2.293 16.037,5.346 0,0 -3.055,-2.928 -3.946,-3.689 -0.89,-0.764 12.574,2.926 17.551,6.363 0,0 -1.896,-2.735 -3.169,-3.276 -1.274,-0.543 68.908,14.97 128.471,62.435 59.564,47.466 102.845,79.136 167.979,95.225 0,0 -0.486,1.749 -2.177,2.5 0,0 7.708,1.129 12.409,0.565 4.7,-0.565 -1.128,3.761 -1.128,3.761 0,0 12.035,-0.564 13.161,-1.129 1.13,-0.564 -4.325,2.821 -5.262,3.009 0,0 9.868,0.302 12.213,-0.551 2.345,-0.853 -2.026,2.238 -3.198,2.664 0,0 9.166,-1.065 9.809,-2.025 0.637,-0.959 0.53,4.264 -2.135,4.264 0,0 9.274,-0.533 11.086,-3.41 1.813,-2.879 -0.738,5.223 -3.514,5.648 0,0 8.442,-1.672 12.265,-5.044 3.823,-3.373 -1.348,4.498 -3.598,5.622 0,0 10.794,-3.148 11.695,-4.722 0.9,-1.575 0.449,4.272 -2.699,5.397 0,0 7.647,-2.25 11.019,-4.722 3.375,-2.475 -1.348,3.822 -3.148,5.171 0,0 8.996,-4.048 11.92,-6.746 2.923,-2.699 -0.45,4.498 0,5.847 0,0 7.197,-5.397 10.119,-7.646 2.926,-2.249 -1.348,5.171 -3.598,6.747 0,0 7.199,-5.173 8.546,-7.422 1.35,-2.249 0,6.297 -1.573,7.871 0,0 9.445,-7.871 11.019,-11.919 1.574,-4.048 -0.449,7.87 -2.474,11.47 0,0 6.646,-7.692 8.547,-13.495 1.901,-5.801 -0.225,9.671 -1.124,11.021 0,0 6.971,-12.82 8.321,-13.943 1.348,-1.125 -4.947,14.393 -2.699,35.533 2.249,21.139 5.397,34.183 4.722,35.759 -0.675,1.573 -5.558,5.093 -7.701,5.919 0,0 5.535,-0.826 7.793,-1.978 2.262,-1.153 -5.979,7.085 -9.275,8.404 0,0 6.801,-0.494 9.662,-1.319 2.861,-0.823 -5.707,4.121 -10.817,5.109 0,0 8.243,0 10.383,-1.483 2.143,-1.482 -8.569,5.768 -12.361,6.757 0,0 6.923,-0.33 9.724,-0.824 2.801,-0.495 -8.734,5.273 -14.336,6.097 0,0 8.567,-0.165 13.512,-1.648 4.944,-1.483 -5.931,4.615 -20.104,5.274 0,0 4.616,1.181 14.173,-0.659 9.554,-1.84 -6.32,4.23 -20.559,3.763 0,0 11.205,0.985 17.041,0.025 5.836,-0.959 -12.606,4.332 -33.15,2.97 0,0 12.139,2.141 25.679,1.207 13.54,-0.934 -31.748,4.902 -49.724,2.335 0,0 9.57,3.501 31.982,3.267 22.411,-0.233 -27.079,13.774 -140.07,-33.382 0,0 120.146,71.691 175.685,26.573 0,0 -3.509,7.78 -12.49,10.204 0,0 10.692,-2.566 12.83,-4.705 0,0 -3.991,5.702 -7.984,6.557 0,0 5.704,-0.284 7.414,-1.852 1.711,-1.569 -6.473,21.522 -77.5,9.83 C 628.623,54.309 538.229,-6.673 538.229,-6.673 c 0,0 -94.968,-66.05 -119.67,-78.841 -24.702,-12.791 -45.538,-27.726 -131.449,-33.057 -85.911,-5.33 -131.971,8.031 -138.787,10.76 -6.815,2.729 -36.514,16.479 -39.264,20.329 -2.75,3.85 7.05,8.502 11.538,9.029 4.487,0.527 42.724,0.698 42.724,0.698 0,0 -42.341,0.349 -46.348,-5.227 -4.008,-5.577 3.136,4.355 39.03,2.264 0,0 -33.373,-0.522 -36.242,-6.272 -2.87,-5.749 17.947,2.092 22.825,2.092 0,0 -17.773,-4.357 -16.553,-5.576 1.22,-1.22 8.712,0.871 12.545,0.522 0,0 -11.118,-1.888 -7.629,-3.052 3.488,-1.162 62.458,-17.109 66.279,-12.291 0,0 1.081,1.659 -0.022,6.808 -1.103,5.149 -3.673,-6.457 -7.338,-6.8 0,0 5.586,8.571 5.586,11.17 0,2.597 -8.26,-9.996 -14.677,-9.742 0,0 13.489,8.962 13.303,15.845 -0.185,6.884 -3.226,-14.975 -35.021,-11.29 0,0 34.748,3.786 33.826,18.38 -0.921,14.592 4.525,-19.714 -38.458,-14.544 0,0 31.695,-2.489 36.96,19.532 0,0 -6.863,-20.711 -39.733,-14.36 0,0 29.879,-2.72 38.014,14.816 0,0 0.867,2.233 0.112,5.794 -0.755,3.56 -5.123,29.488 -6.979,34.09 -1.855,4.604 -13.56,12.033 -18.451,13.061 -5.709,1.2 -15.791,1.395 -22.1,0.849 C 135.941,-22.23 84.919,-35.098 59.554,-35.596 34.191,-36.092 2.101,-27.938 0,0"
             style="fill:#d6d113;fill-opacity:1;fill-rule:nonzero;stroke:none"
             id="path334" />
        </g>
      </g>
    </g>
    <text
       xml:space="preserve"
       transform="matrix(0.99839264,-0.16526504,-0.16137624,-0.97489716,0,0)"
       style="font-variant:normal;font-weight:500;font-stretch:normal;font-size:131.557px;font-family:RitaSmith;-inkscape-font-specification:RitaSmith;writing-mode:lr-tb;fill:#000000;fill-opacity:1;fill-rule:nonzero;stroke:none;stroke-width:0.988777"
       id="text338"
       x="993.91858"
       y="-1410.6923"><tspan
         x="993.91858"
         y="-1410.6923"
         id="tspan336"
         style="stroke-width:0.988777">H</tspan></text>
    <text
       xml:space="preserve"
       transform="matrix(1.010509,0.05451471,0.05323237,-0.98672851,0,0)"
       style="font-variant:normal;font-weight:500;font-stretch:normal;font-size:131.557px;font-family:RitaSmith;-inkscape-font-specification:RitaSmith;writing-mode:lr-tb;fill:#000000;fill-opacity:1;fill-rule:nonzero;stroke:none;stroke-width:0.98823"
       id="text342"
       x="1351.4587"
       y="-1139.5653"><tspan
         x="1351.4587"
         y="-1139.5653"
         id="tspan340"
         style="stroke-width:0.98823">O</tspan></text>
    <text
       xml:space="preserve"
       transform="matrix(0.97076496,0.28585897,0.27913186,-0.94792014,0,0)"
       style="font-variant:normal;font-weight:500;font-stretch:normal;font-size:131.557px;font-family:RitaSmith;-inkscape-font-specification:RitaSmith;writing-mode:lr-tb;fill:#000000;fill-opacity:1;fill-rule:nonzero;stroke:none;stroke-width:0.990002"
       id="text346"
       x="1654.3563"
       y="-771.77533"><tspan
         x="1654.3563"
         y="-771.77533"
         id="tspan344"
         style="stroke-width:0.990002">P</tspan></text>
    <text
       xml:space="preserve"
       transform="matrix(0.88876422,0.4839402,0.47255124,-0.86784936,0,0)"
       style="font-variant:normal;font-weight:500;font-stretch:normal;font-size:131.557px;font-family:RitaSmith;-inkscape-font-specification:RitaSmith;writing-mode:lr-tb;fill:#000000;fill-opacity:1;fill-rule:nonzero;stroke:none;stroke-width:0.993461"
       id="text350"
       x="1850.9111"
       y="-382.78549"><tspan
         x="1850.9111"
         y="-382.78549"
         id="tspan348"
         style="stroke-width:0.993461">S</tspan></text>
    <text
       xml:space="preserve"
       transform="matrix(0.86297165,0.52856415,0.51612545,-0.84266336,0,0)"
       style="font-variant:normal;font-weight:500;font-stretch:normal;font-size:131.558px;font-family:RitaSmith;-inkscape-font-specification:RitaSmith;writing-mode:lr-tb;fill:#000000;fill-opacity:1;fill-rule:nonzero;stroke:none;stroke-width:0.994493"
       id="text354"
       x="2008.1028"
       y="-290.69354"><tspan
         x="2008.1028"
         y="-290.69354"
         id="tspan352"
         style="stroke-width:0.994493">P</tspan></text>
    <text
       xml:space="preserve"
       transform="matrix(0.93571364,0.38540898,0.37633917,-0.91369354,0,0)"
       style="font-variant:normal;font-weight:500;font-stretch:normal;font-size:131.557px;font-family:RitaSmith;-inkscape-font-specification:RitaSmith;writing-mode:lr-tb;fill:#000000;fill-opacity:1;fill-rule:nonzero;stroke:none;stroke-width:0.991514"
       id="text358"
       x="1999.0981"
       y="-623.24103"><tspan
         x="1999.0981"
         y="-623.24103"
         id="tspan356"
         style="stroke-width:0.991514">U</tspan></text>
    <text
       xml:space="preserve"
       transform="matrix(0.99471447,0.18612748,0.18174763,-0.97130564,0,0)"
       style="font-variant:normal;font-weight:500;font-stretch:normal;font-size:131.557px;font-family:RitaSmith;-inkscape-font-specification:RitaSmith;writing-mode:lr-tb;fill:#000000;fill-opacity:1;fill-rule:nonzero;stroke:none;stroke-width:0.988942"
       id="text362"
       x="1895.5483"
       y="-1042.0475"><tspan
         x="1895.5483"
         y="-1042.0475"
         id="tspan360"
         style="stroke-width:0.988942">B</tspan></text>
    <g
       id="g58">
      <g
         id="g60"
         transform="matrix(1000,0,0,922,917,673)" />
    </g>
    <g
       id="g976"
       transform="translate(-14.413475,112.90556)">
      <g
         id="g974"
         clip-path="url(#clipPath230)">
        <g
           id="g872"
           transform="translate(1440.3633,1513.8564)">
          <path
             d="m 0,0 c 0,0 -36.296,16.482 -70.421,10.708 -34.126,-5.775 -49.876,-17.063 -64.314,-29.401 -14.436,-12.336 -25.987,-28.874 -29.924,-35.962 -3.937,-7.087 -9.976,-20.474 -25.2,-29.925 0,0 5.854,-8.037 12.756,-8.589 0,0 -24.845,-12.147 -29.539,-30.92 -4.692,-18.772 2.209,-38.372 6.349,-46.654 4.143,-8.281 11.043,-13.527 9.387,-16.563 -1.657,-3.037 -13.803,-32.852 -11.318,-47.759 0,0 -15.017,6.447 -31.469,6.096 -16.451,-0.349 -25.726,-3.324 -47.952,-8.4 -22.226,-5.075 -42.527,-9.101 -58.803,-4.549 -16.276,4.549 -30.72,12.051 -33.791,21.074 -3.072,9.025 1.054,22.176 13.534,24.288 0,0 -20.062,-0.288 -30.238,-12.959 -10.176,-12.672 -11.643,-25.186 -5.386,-42.742 5.938,-16.659 38.062,-43.765 62.982,-42.762 0,0 -43.618,-20.26 -62.066,29.551 0,0 -25.866,-39.927 12.441,-72.312 38.306,-32.388 114.571,-36.566 114.571,-36.566 0,0 -13.603,-14.402 -16.164,-16.964 -2.56,-2.56 -2.08,-5.28 0.161,-8.161 2.24,-2.881 53.339,-50.344 157.737,-57.462 0,0 11.93,-0.044 21.234,-5.898 9.307,-5.852 14.259,-7.354 14.259,-7.354 l -0.149,12.609 c 0,0 25.302,-22.928 28.252,-38.799 4.199,-22.593 0.097,-40.505 -3.393,-47.267 0,0 37.275,2.14 51.79,9.935 0,0 37.98,-41.875 39.344,-57.847 1.363,-15.971 0,-25.904 0,-25.904 0,0 32.476,1.216 60.631,32.636 0,0 18.264,23.368 21.845,40.906 0,0 13.243,-13.423 37.939,-13.064 0,0 9.79,0.178 14.905,1.524 5.116,1.346 -11.727,18.288 0,33.925 11.729,15.632 37.856,40.14 43.578,69.962 0,0 5.627,-16.895 29.625,-17.226 0,0 15.305,0.286 9.28,11.892 -6.026,11.605 -8.703,33.029 -3.794,37.494 4.909,4.463 65.168,48.429 71.862,64.944 0,0 13.397,-12.538 29.666,-13.917 16.27,-1.38 53.222,5.238 85.762,14.615 32.541,9.376 70.595,12.96 81.349,4.136 10.756,-8.824 -16.821,-33.368 -16.821,-33.368 0,0 44.121,13.237 48.259,35.575 4.136,22.336 -16.822,39.157 -19.027,39.984 0,0 24.222,19.314 21.272,43.95 -2.948,24.634 -44.065,33.309 -61.067,35.044 -17.002,1.735 -60.721,1.735 -78.243,-8.501 0,0 -2.759,-1.035 -2.272,2.367 0.487,3.402 1.784,12.032 2.977,22.779 1.196,10.746 3.903,25.83 -2.31,33.689 0,0 -2.285,3.381 -0.184,8.407 2.101,5.025 7.211,11.519 1.705,16.659 -5.503,5.137 -22.813,13.59 -57.492,14.457 l -18.17,-0.144 c 0,0 3.309,25.151 -19.195,39.381 -22.504,14.231 -14.646,13.016 -10.059,14.163 4.589,1.147 14.913,7.265 14.913,9.176 0,1.912 -23.443,44.083 -66.672,70.02 C 201.703,19.945 170.379,21.149 155.546,21.909 140.713,22.67 122.771,21.392 94.956,10.07 81.31,4.518 70.969,10.416 83.875,27.418 c 0,0 3.38,4.598 7.402,8.811 4.021,4.213 0.383,4.979 -7.278,9.576 -7.661,4.596 -33.897,20.3 -57.073,0 C 3.754,25.504 0,0 0,0"
             style="fill:#000000;fill-opacity:1;fill-rule:nonzero;stroke:none"
             id="path870" />
        </g>
        <g
           id="g876"
           transform="translate(1440.3633,1513.8564)">
          <path
             d="m 0,0 c 0,0 -36.296,16.482 -70.421,10.708 -34.126,-5.775 -49.876,-17.063 -64.314,-29.401 -14.436,-12.336 -25.987,-28.874 -29.924,-35.962 -3.937,-7.087 -9.976,-20.474 -25.2,-29.925 0,0 5.854,-8.037 12.756,-8.589 0,0 -24.845,-12.147 -29.539,-30.92 -4.692,-18.772 2.209,-38.372 6.349,-46.654 4.143,-8.281 11.043,-13.527 9.387,-16.563 -1.657,-3.037 -13.803,-32.852 -11.318,-47.759 0,0 -15.017,6.447 -31.469,6.096 -16.451,-0.349 -25.726,-3.324 -47.952,-8.4 -22.226,-5.075 -42.527,-9.101 -58.803,-4.549 -16.276,4.549 -30.72,12.051 -33.791,21.074 -3.072,9.025 1.054,22.176 13.534,24.288 0,0 -20.062,-0.288 -30.238,-12.959 -10.176,-12.672 -11.643,-25.186 -5.386,-42.742 5.938,-16.659 38.062,-43.765 62.982,-42.762 0,0 -43.618,-20.26 -62.066,29.551 0,0 -25.866,-39.927 12.441,-72.312 38.306,-32.388 114.571,-36.566 114.571,-36.566 0,0 -13.603,-14.402 -16.164,-16.964 -2.56,-2.56 -2.08,-5.28 0.161,-8.161 2.24,-2.881 53.339,-50.344 157.737,-57.462 0,0 11.93,-0.044 21.234,-5.898 9.307,-5.852 14.259,-7.354 14.259,-7.354 l -0.149,12.609 c 0,0 25.302,-22.928 28.252,-38.799 4.199,-22.593 0.097,-40.505 -3.393,-47.267 0,0 37.275,2.14 51.79,9.935 0,0 37.98,-41.875 39.344,-57.847 1.363,-15.971 0,-25.904 0,-25.904 0,0 32.476,1.216 60.631,32.636 0,0 18.264,23.368 21.845,40.906 0,0 13.243,-13.423 37.939,-13.064 0,0 9.79,0.178 14.905,1.524 5.116,1.346 -11.727,18.288 0,33.925 11.729,15.632 37.856,40.14 43.578,69.962 0,0 5.627,-16.895 29.625,-17.226 0,0 15.305,0.286 9.28,11.892 -6.026,11.605 -8.703,33.029 -3.794,37.494 4.909,4.463 65.168,48.429 71.862,64.944 0,0 13.397,-12.538 29.666,-13.917 16.27,-1.38 53.222,5.238 85.762,14.615 32.541,9.376 70.595,12.96 81.349,4.136 10.756,-8.824 -16.821,-33.368 -16.821,-33.368 0,0 44.121,13.237 48.259,35.575 4.136,22.336 -16.822,39.157 -19.027,39.984 0,0 24.222,19.314 21.272,43.95 -2.948,24.634 -44.065,33.309 -61.067,35.044 -17.002,1.735 -60.721,1.735 -78.243,-8.501 0,0 -2.759,-1.035 -2.272,2.367 0.487,3.402 1.784,12.032 2.977,22.779 1.196,10.746 3.903,25.83 -2.31,33.689 0,0 -2.285,3.381 -0.184,8.407 2.101,5.025 7.211,11.519 1.705,16.659 -5.503,5.137 -22.813,13.59 -57.492,14.457 l -18.17,-0.144 c 0,0 3.309,25.151 -19.195,39.381 -22.504,14.231 -14.646,13.016 -10.059,14.163 4.589,1.147 14.913,7.265 14.913,9.176 0,1.912 -23.443,44.083 -66.672,70.02 C 201.703,19.945 170.379,21.149 155.546,21.909 140.713,22.67 122.771,21.392 94.956,10.07 81.31,4.518 70.969,10.416 83.875,27.418 c 0,0 3.38,4.598 7.402,8.811 4.021,4.213 0.383,4.979 -7.278,9.576 -7.661,4.596 -33.897,20.3 -57.073,0 C 3.754,25.504 0,0 0,0 Z"
             style="fill:none;stroke:#000000;stroke-width:1;stroke-linecap:butt;stroke-linejoin:miter;stroke-miterlimit:10;stroke-dasharray:none;stroke-opacity:1"
             id="path874" />
        </g>
        <g
           id="g880"
           transform="translate(1454.4375,1499.252)">
          <path
             d="m 0,0 c 0,0 1.057,72.83 60.248,51.959 0.688,-0.242 0.954,-1.082 0.529,-1.674 C 58.075,46.515 50.033,34.418 51.359,25.712 52.946,15.278 63.072,5.296 61.641,4.388 c 0,0 -16.827,9.387 -15.496,25.505 0,0 -3.158,-14.955 7.311,-27.25 0,0 -16.417,8.011 -8.532,41.132 0,0 -8.871,-23.461 2.958,-39.429 0,0 -11.294,8.407 -9.232,33.027 0,0 -2.99,-19.015 2.46,-30.067 0,0 -11.053,9.993 -7.722,30.132 0,0 -4.694,-16.05 1.968,-27.861 0,0 -9.539,4.542 -5.299,33.16 0,0 -13.477,-26.649 8.176,-51.18 0,0 -12.87,6.815 -16.352,19.382 0,0 1.15,-13.028 14.172,-24.384 0,0 -9.058,-1.045 -14.055,-2.863 C 17,-18.125 8.406,-1.854 0,0"
             style="fill:#97cc23;fill-opacity:1;fill-rule:nonzero;stroke:none"
             id="path878" />
        </g>
        <g
           id="g884"
           transform="translate(1459.166,1468.1763)">
          <path
             d="m 0,0 c 0,0 41.747,30.532 117.148,14.626 75.403,-15.904 73.447,-89.426 73.451,-93.686 0.03,-26.247 -3.111,-45.856 -19.3,-59.062 0,0 -2.87,30.021 -9.459,37.842 0,0 8.14,-23.322 3.079,-39.822 0,0 -7.26,48.402 -23.761,67.542 0,0 19.142,-43.781 19.362,-67.542 0,0 -9.68,33.221 -15.401,41.581 0,0 8.141,-25.741 8.36,-44.441 0,0 -4.178,13.861 -8.36,17.38 0,0 3.74,-13.859 2.86,-24.201 0,0 -15.622,-10.78 -23.76,-18.481 0,0 -49.196,26.695 -74.371,70.744 C 24.67,-53.471 11.676,-5.775 0,0"
             style="fill:#97cc23;fill-opacity:1;fill-rule:nonzero;stroke:none"
             id="path882" />
        </g>
        <g
           id="g888"
           transform="translate(1524.6699,1504.6157)">
          <path
             d="m 0,0 c 0,0 23.475,18.593 52.759,20.453 29.285,1.859 93.073,-13.086 127.88,-45.905 25.976,-24.492 26.912,-34.512 26.446,-35.674 -0.466,-1.163 -9.296,-11.621 -24.403,-6.973 -15.106,4.649 -29.052,-1.184 -29.052,-1.184 0,0 -6.741,18.616 -26.265,35.35 0,0 22.416,-28.467 20.928,-37.658 0,0 -13.649,28.437 -36.895,46.114 0,0 30.827,-28.944 29.435,-48.957 0,0 -10.093,29.466 -33.41,47.536 0,0 26.45,-28.567 25.579,-40.401 0,0 -25.936,50.077 -77.611,56.382 -42.014,5.125 -49.643,0.293 -50.775,1.312 1.083,1.579 5.218,7.067 12.317,10.173 0,0 -11.893,-3.23 -15.558,-6.834 0,0 6.793,8.663 26.871,17.485 0,0 -4.4,0.313 -28.246,-11.219"
             style="fill:#97cc23;fill-opacity:1;fill-rule:nonzero;stroke:none"
             id="path886" />
        </g>
        <g
           id="g892"
           transform="translate(1669.4814,1412.25)">
          <path
             d="m 0,0 c 0,0 15.257,10.26 37.092,9.734 21.833,-0.526 34.462,-13.153 39.46,-21.309 4.998,-8.154 7.101,-25.708 7.101,-27.55 0,0 -21.888,-2.972 -23.974,-4.253 0,0 -8.577,26.929 -40.138,41.852 0,0 27.617,-21.784 31.219,-34.993 0,0 -12.179,15.61 -22.988,23.158 0,0 3.262,-3.946 3.604,-6.347 0,0 -15.584,14.751 -31.376,17.838 0,0 -1.965,0.694 0,1.87"
             style="fill:#97cc23;fill-opacity:1;fill-rule:nonzero;stroke:none"
             id="path890" />
        </g>
        <g
           id="g896"
           transform="translate(1572.4287,1293.2974)">
          <path
             d="m 0,0 c 0,0 -43.627,25.606 -49.634,39.2 0,0 -42.361,-38.885 -16.439,-88.518 0,0 61.963,44.575 66.073,49.318"
             style="fill:#97cc23;fill-opacity:1;fill-rule:nonzero;stroke:none"
             id="path894" />
        </g>
        <g
           id="g900"
           transform="translate(1454.4375,1489.0449)">
          <path
             d="m 0,0 c 0,0 -31.15,31.879 -77.246,24.555 -46.095,-7.323 -67.226,-28.514 -80.078,-43.655 -12.288,-14.473 -4.51,-21.751 -25.745,-39.763 0,0 -2.612,-2.167 0,-2.821 2.611,-0.655 37.51,0.872 41.655,6.98 4.144,6.107 27.92,46.679 107.971,41.225 0,0 -5.061,6.789 -44.572,5.159 0,0 35.642,4.073 53.361,-2.036 0,0 -5.907,10.281 -56.618,8.705 0,0 37.066,4.412 59.467,-4.591 0,0 -12.626,17.979 -85.944,4.591 0,0 56.008,14.511 89.407,1.885 0,0 9.376,-4.358 18.342,-0.234"
             style="fill:#97cc23;fill-opacity:1;fill-rule:nonzero;stroke:none"
             id="path898" />
        </g>
        <g
           id="g904"
           transform="translate(1448.2539,1461.3857)">
          <path
             d="m 0,0 c 0,0 -48.972,21.946 -93.553,-7.383 -44.58,-29.329 -64.524,-82.124 -58.072,-117.906 6.452,-35.781 23.654,-66.885 30.207,-73.984 0,0 19.679,30.659 21.949,37.8 l -8.7,-8.743 27.61,36.688 c 0,0 -30.636,-32.528 -34.417,-37.823 0,0 22.936,31.713 30.055,38.831 0,0 -19.392,-14.237 -29.211,-26.265 0,0 16.937,36.084 82.479,67.014 0,0 -32.648,-23.32 -36.085,-29.457 0,0 13.01,9.819 30.684,17.429 0,0 -9.573,-5.647 -13.992,-12.274 0,0 35.594,24.547 47.866,34.857 C 9.096,-70.906 42.937,-33.01 0,0"
             style="fill:#97cc23;fill-opacity:1;fill-rule:nonzero;stroke:none"
             id="path902" />
        </g>
        <g
           id="g908"
           transform="translate(1276.1948,1414.1025)">
          <path
             d="m 0,0 c 0,0 -34.538,-11.647 -31.325,-36.547 3.212,-24.901 13.655,-39.36 13.655,-39.36 0,0 35.744,68.678 41.367,75.907 0,0 -16.186,-17.682 -26.718,-40.77 0,0 6.887,19.645 19.847,39.695 0,0 -16.605,-21.265 -24.707,-39.491 0,0 13.772,32.123 20.86,40.566 0,0 -19.847,-24.254 -28.15,-48.409 0,0 11.948,33.36 24.505,49.359 0,0 -16.405,-12.961 -23.291,-28.15 0,0 7.865,20.377 13.957,27.2"
             style="fill:#97cc23;fill-opacity:1;fill-rule:nonzero;stroke:none"
             id="path906" />
        </g>
        <g
           id="g912"
           transform="translate(1704.2891,1363.1064)">
          <path
             d="m 0,0 c 0,0 -7.579,28.317 -41.479,39.883 0,0 7.831,-8.526 11.391,-29.174 0,0 -2.375,11.907 -12.342,19.838 0,0 9.967,-19.601 12.106,-40.011 0,0 -3.561,17.088 -13.528,32.04 0,0 9.699,-25.394 8.17,-34.65 0,0 0.371,6.724 -8.17,17.839 0,0 2.569,-11.552 3.281,-20.096 0,0 -0.812,6.242 -5.181,11.513 0,0 -0.237,-2.137 -1.425,-7.12 0,0 1.325,-4.789 0.849,-6.688 0,0 -0.849,0.991 -2.51,2.89 0,0 -0.949,-2.61 -2.609,-5.695 0,0 42.849,17.503 51.447,19.431"
             style="fill:#97cc23;fill-opacity:1;fill-rule:nonzero;stroke:none"
             id="path910" />
        </g>
        <g
           id="g916"
           transform="translate(1427.002,1068.7168)">
          <path
             d="m 0,0 c 0,0 28.32,7.211 32.439,10.816 0,0 -10.297,-18.023 -27.804,-21.628 z"
             style="fill:#97cc23;fill-opacity:1;fill-rule:nonzero;stroke:none"
             id="path914" />
        </g>
        <g
           id="g920"
           transform="translate(1467.3848,1070.3672)">
          <path
             d="m 0,0 c 0,0 -17.109,-24.514 -39.072,-26.812 0,0 -9.705,10.982 -11.747,22.218 0,0 -2.554,-1.022 -4.085,-1.022 0,0 6.383,-8.171 8.17,-14.556 0,0 -7.15,9.703 -10.98,13.533 0,0 -0.256,0 -3.32,-0.51 0,0 10.725,-13.79 9.704,-21.705 0,0 -6.384,15.833 -13.024,20.683 l -3.319,-0.255 c 0,0 8.937,-9.449 10.214,-25.792 0,0 -4.086,16.6 -13.791,25.026 0,0 -0.766,-0.255 -3.064,-0.511 l -2.298,-0.254 c 0,0 12.514,-9.45 11.237,-22.729 0,0 -0.511,12.257 -13.79,21.961 l -2.299,-0.254 c 0,0 9.703,-10.726 8.937,-18.132 0,0 -6.127,15.423 -12.768,16.649 0,0 6.895,-11.798 7.661,-20.224 0,0 -3.83,14.401 -13.279,20.224 0,0 11.748,-17.67 9.449,-24.31 0,0 -1.96,14.586 -13.453,23.218 0,0 7.323,-12.747 7.579,-16.323 0,0 -1.787,6.639 -11.491,15.834 0,0 -2.043,-0.767 -5.109,0 0,0 33.709,-26.56 21.708,-72.015 0,0 89.891,5.106 98.064,72.526 0,0 -5.873,-16.345 -7.151,-18.132 0,0 8.428,25.281 2.299,42.903 0,0 1.787,-31.922 -13.025,-52.096 0,0 12.514,26.56 6.895,45.711 0,0 -2.096,-30.133 -12.795,-42.263 0,0 7.687,9.576 7.943,37.409"
             style="fill:#97cc23;fill-opacity:1;fill-rule:nonzero;stroke:none"
             id="path918" />
        </g>
        <g
           id="g924"
           transform="translate(1438.8809,984.3096)">
          <path
             d="m 0,0 c 0,0 26.965,-27.292 29.574,-34.252 0,0 0.871,23.053 -2.174,41.754 0,0 9.568,-30.88 5.653,-46.971 0,0 1.728,-3.61 2.242,-6.688 0,0 6.349,19.735 -1.883,53.659 0,0 16.078,-34.591 6.317,-69.04 0,0 7.847,2.679 6.699,53.97 0,0 9.225,-25.645 0.115,-56.459 0,0 48.783,21.304 54.707,88.552 0,0 -10.803,4.183 -17.422,12.198 0,0 0.25,-18.569 -5.701,-28.121 0,0 3.785,15.685 3.605,32.63 0,0 -1.082,0.542 -2.884,2.886 0,0 0.721,-10.456 -1.622,-18.21 0,0 0.18,17.488 -2.525,23.798 0,0 -3.551,3.786 -4.568,5.41 l -1.022,1.621 c 0,0 3.301,-15.505 1.022,-27.584 0,0 -1.201,32.094 -10.215,42.011 0,0 -0.182,-2.347 -0.541,-3.968 -0.361,-1.624 6.851,-12.621 5.949,-30.469 0,0 -1.983,13.16 -8.114,24.701 0,0 -0.181,-1.986 -0.54,-3.245 -0.361,-1.264 5.95,-13.886 3.064,-33.537 0,0 -0.902,11.721 -5.228,26.143 0,0 -1.262,-3.787 -1.443,-4.328 -0.179,-0.539 2.344,-18.932 1.263,-22.535 0,0 -1.637,16.046 -3.704,19.11 C 50.624,43.036 38.706,13.934 0,0"
             style="fill:#97cc23;fill-opacity:1;fill-rule:nonzero;stroke:none"
             id="path922" />
        </g>
        <g
           id="g928"
           transform="translate(1626.1738,1098.9834)">
          <path
             d="m 0,0 c 0,0 -50.222,-84.621 -55.037,-84.621 0,0 -0.532,-5.045 -1.604,-6.547 0,0 -0.429,2.145 -1.714,4.074 0,0 -2.145,-18.437 6.861,-29.159 0,0 -12.01,13.972 -11.582,24.693 0,0 -5.143,-12.257 7.293,-26.837 0,0 -14.364,12.005 -12.863,23.799 0,0 -5.577,-2.145 1.071,-18.01 0,0 -5.362,7.503 -6.432,13.935 0,0 -5.79,-7.714 -5.36,-12.433 0.428,-4.718 19.309,-20.799 39.672,-19.727 0,0 -7.512,9.861 2.995,29.373 10.505,19.511 45.024,57.033 45.239,66.037 C 8.754,-26.415 -2.537,-12.177 0,0"
             style="fill:#97cc23;fill-opacity:1;fill-rule:nonzero;stroke:none"
             id="path926" />
        </g>
        <g
           id="g932"
           transform="translate(1394.0229,1230.5215)">
          <path
             d="m 0,0 c 16.049,-16.655 24.225,-30.585 24.225,-30.585 0,0 -12.415,-6.359 -24.225,-6.056 z"
             style="fill:#97cc23;fill-opacity:1;fill-rule:nonzero;stroke:none"
             id="path930" />
        </g>
        <g
           id="g936"
           transform="translate(1306.8105,1270.1914)">
          <path
             d="m 0,0 c 0,0 -11.507,-15.142 -3.937,-81.157 0,0 52.993,-0.908 58.444,0 0,0 3.937,29.98 9.388,41.487 0,0 -6.057,-29.374 -4.542,-40.276 l 1.525,0.303 c 0,0 1.944,32.782 8.968,42.548 0,0 -8.221,-32.234 -4.185,-40.305 0,0 2.391,24.662 7.922,36.62 0,0 -5.531,-23.766 -3.737,-30.044 1.794,-6.278 10.015,28.698 7.324,30.044 -2.691,1.344 -28.847,29.842 -30.491,40.78 0,0 -2.094,-12.082 -4.335,-15.52 0,0 2.092,15.993 0.897,21.973 0,0 -1.494,-7.176 -2.541,-7.325 -1.047,-0.149 1.047,3.886 -0.598,7.325 -1.644,3.437 -2.69,-10.613 -3.887,-12.855 -1.195,-2.242 -0.299,2.69 -2.092,4.484 -1.793,1.793 -2.391,-13.154 -2.391,-13.154 0,0 -0.897,4.036 -2.392,6.129 -1.494,2.092 -1.943,-11.659 -3.438,-13.901 0,0 -0.299,3.587 -1.196,5.082 -0.897,1.495 -2.242,-5.83 -4.334,-5.53 C 18.278,-22.994 6.681,-7.5 0,0"
             style="fill:#97cc23;fill-opacity:1;fill-rule:nonzero;stroke:none"
             id="path934" />
        </g>
        <g
           id="g940"
           transform="translate(1592.3018,1162.5449)">
          <path
             d="m 0,0 c 0,0 36.97,-31.592 11.763,-72.594 -25.205,-41.001 -44.657,-70.914 -57.281,-70.577 -12.625,0.336 -39.848,46.378 -42.874,56.462 -3.023,10.082 -4.367,21.51 -3.359,24.533 1.008,3.025 3.025,-10.418 4.706,-11.09 0,0 -1.622,10.957 1.696,15.102 3.316,4.145 0,-24.669 15.34,-41.047 0,0 -13.682,25.913 -7.463,44.157 0,0 1.866,-34.491 15.547,-49.586 0,0 -16.825,34.844 -8.622,52.311 0,0 2.116,-29.11 11.115,-34.933 0,0 -10.321,21.965 -4.764,38.637 0,0 5.029,-24.609 10.056,-25.668 0,0 -7.939,19.052 -2.646,29.639 0,0 2.91,-20.113 6.881,-23.024 0,0 -3.971,25.141 -0.794,29.111 0,0 2.645,-23.259 7.675,-24.995 0,0 -4.723,16.525 -2.494,29.228 0,0 4.081,-22.229 7.787,-23.289 0,0 -5.293,16.938 -2.913,26.73 0,0 2.382,-11.115 6.354,-14.821 0,0 -1.881,11.38 -1.47,18.262 l 2.792,2.381 c 0,0 1.852,-5.822 3.704,-7.409 0,0 -0.262,6.878 0.265,10.056 l 4.234,3.704 3.176,-7.674 1.323,11.115 3.441,2.646 2.91,-3.705 1.061,6.616 z"
             style="fill:#97cc23;fill-opacity:1;fill-rule:nonzero;stroke:none"
             id="path938" />
        </g>
        <g
           id="g944"
           transform="translate(1687.7188,1217.9097)">
          <path
             d="m 0,0 c 0,0 -36.505,-14.544 -40.782,-17.966 0,0 0.284,-13.689 -1.141,-17.397 0,0 -1.997,9.696 -5.419,12.834 0,0 1.711,-32.227 -1.427,-37.36 0,0 -1.139,22.529 -6.557,32.511 0,0 0.284,-15.114 0,-18.537 0,0 -2.283,13.974 -5.989,15.97 0,0 -18.538,-11.978 -19.964,-14.545 -1.426,-2.566 8.84,-10.875 8.84,-10.875 l -0.569,10.021 c 0,0 9.981,-25.097 11.121,-29.66 0,0 -1.426,14.83 -3.992,24.811 0,0 11.692,-8.555 14.544,-42.492 2.852,-33.939 8.841,-47.627 24.812,-58.749 0,0 4.587,-2.757 3.256,5.396 -1.332,8.156 -4.385,22.246 3.963,45.369 C -10.953,-77.55 2.604,-29.383 0,0"
             style="fill:#97cc23;fill-opacity:1;fill-rule:nonzero;stroke:none"
             id="path942" />
        </g>
        <g
           id="g948"
           transform="translate(1752.833,1237.1929)">
          <path
             d="m 0,0 c 0,0 -8.097,-1.604 -9.903,-2.894 0,0 -2.065,-19.353 -6.451,-26.063 0,0 1.548,19.096 0,23.742 -1.549,4.644 -3.614,-33.031 -11.354,-39.741 0,0 5.16,18.322 4.901,38.191 0,0 -3.612,-0.774 -4.901,-1.29 -1.291,-0.516 -3.098,-47.996 -9.807,-60.899 0,0 6.709,43.609 3.871,59.093 0,0 -5.419,-51.867 -15.224,-76.639 0,0 12.9,55.221 6.192,72.252 0,0 -4.386,-58.318 -12.128,-71.221 0,0 7.742,41.547 7.742,59.093 0,17.547 -11.871,-81.286 -22.193,-94.703 0,0 3.662,-1.216 4.467,0.441 0.805,1.658 8.43,18.455 10.198,24.754 0,0 -2.983,-17.35 -4.863,-20.776 -1.878,-3.425 10.61,16.687 10.61,16.687 0,0 -0.554,-7.515 -1.328,-9.173 -0.773,-1.656 20.125,23.758 22.695,32.754 0,0 0.857,-6.211 -0.214,-10.066 C -28.762,-90.314 15.61,-50.466 0,0"
             style="fill:#97cc23;fill-opacity:1;fill-rule:nonzero;stroke:none"
             id="path946" />
        </g>
        <g
           id="g952"
           transform="translate(1945.5586,1217.2021)">
          <path
             d="m 0,0 c 0,0 10.49,7.162 -1.371,13.678 -11.859,6.518 -38.576,-2.477 -38.576,-2.477 0,0 25.412,-0.417 39.947,-11.201"
             style="fill:#000000;fill-opacity:1;fill-rule:nonzero;stroke:none"
             id="path950" />
        </g>
        <g
           id="g956"
           transform="translate(1945.5586,1217.2021)">
          <path
             d="m 0,0 c 0,0 10.49,7.162 -1.371,13.678 -11.859,6.518 -38.576,-2.477 -38.576,-2.477 0,0 25.412,-0.417 39.947,-11.201 z"
             style="fill:none;stroke:#000000;stroke-width:1;stroke-linecap:butt;stroke-linejoin:miter;stroke-miterlimit:10;stroke-dasharray:none;stroke-opacity:1"
             id="path954" />
        </g>
        <g
           id="g960"
           transform="translate(1948.5,1214.6509)">
          <path
             d="m 0,0 c 0,0 6.604,5.439 7.67,10.829 1.066,5.387 -2.367,10.421 -4.086,11.604 -1.719,1.185 -8.23,6.632 -22.264,4.678 -14.034,-1.953 -34.486,-6.533 -46.777,-19.709 0,0 46.863,3.337 72.267,-19.091 25.403,-22.427 14.419,-41.319 14.419,-41.319 0,0 -6.321,-9.258 -16.377,-14.515 0,0 11.468,16.504 -1.496,24.047 -12.962,7.543 -50.535,6.446 -82.262,-1.902 -31.727,-8.351 -55.196,-13.334 -60.386,-13.958 -5.191,-0.623 -25.651,-0.461 -25.651,-0.461 0,0 -5.054,0.137 -10.348,2.869 -5.292,2.732 -15.067,9.678 -15.325,14.824 -0.257,5.144 8.583,9.423 8.702,30.794 0,0 14.97,8.748 31.471,7.809 0,0 -19.166,0.83 -31.393,-5.501 0,0 0.857,3.492 0.77,3.932 -0.086,0.441 18.36,6.214 26.359,5.731 0,0 -14.119,0.781 -26.658,-3.698 l -0.062,2.43 c 0,0 14.706,4.233 24.065,4.011 0,0 -15.04,-0.112 -24.51,-2.674 l -0.015,3.549 c 0,0 13.607,2.652 21.217,2.421 0,0 -17.643,0.693 -21.563,-0.923 v 3.806 c 0,0 13.607,1.73 18.797,1.269 0,0 -14.76,0.808 -19.027,0 l -0.116,3.574 c 0,0 12.8,1.729 17.413,1.615 0,0 -15.568,0.23 -17.644,-0.347 l -0.229,2.752 c 0,0 13.26,1.631 21.908,1.976 0,0 -20.064,1.038 -22.486,0 0,0 -0.834,1.947 0.115,2.705 0.951,0.761 14.338,3.513 20.983,3.418 6.646,-0.093 28.433,-4.003 28.433,-4.003 0,0 -5.789,-1.883 -9.928,-1.608 -4.138,0.277 6.758,-1.872 15.045,-0.492 8.288,1.383 -9.666,-3.068 -9.666,-3.068 0,0 15.038,-0.004 17.954,1.072 2.916,1.076 -7.52,-3.528 -10.743,-3.834 -3.222,-0.307 13.506,0.614 17.65,1.842 4.141,1.227 -7.981,-6.6 -11.357,-6.753 -3.378,-0.154 10.589,0.153 16.268,4.143 5.676,3.99 -2.457,-6.292 -13.2,-7.366 0,0 4.625,-0.093 16.479,4.233 0,0 0.355,-2.903 -8.736,-6.015 -9.094,-3.11 9.332,1.676 11.724,3.35 2.393,1.676 -0.478,-5.024 -17.947,-9.093 0,0 13.854,1.394 19.124,3.598 5.27,2.205 -14.493,-8.189 -26.203,-9.653 -11.712,-1.464 14.198,-1.17 26.642,6.587 0,0 0.292,-4.244 -39.524,-12.735 0,0 33.084,3.367 38.94,7.32 0,0 1.023,-3.367 -3.514,-4.831 -4.539,-1.463 -29.029,-4.415 -35.252,-4.633 -6.222,-0.219 -23.174,-1.383 -23.174,-1.383 0,0 -16.695,-1.894 -18.712,-19.726 -2.016,-17.832 30.78,-16.133 30.78,-16.133 0,0 -3.396,0.849 -6.05,2.229 -2.655,1.379 24.057,-2.583 53.304,10.877 0,0 -40.554,-12.922 -63.08,-6.155 0,0 35.426,0.367 42.401,2.753 0,0 -41.668,-1.469 -47.174,0.735 0,0 34.693,0.184 35.426,1.101 0,0 -31.7,-0.565 -38.362,3.67 0,0 29.367,0 33.59,0.736 0,0 -31.938,0 -33.224,4.221 0,0 22.027,-2.385 30.838,-0.734 0,0 -24.965,0.734 -27.167,4.589 0,0 27.717,-2.386 33.957,-1.101 0,0 -25.013,0.564 -30.635,4.795 0,0 24.326,-1.763 29.966,-1.058 0,0 -19.389,0.706 -23.973,2.821 0,0 39.839,-0.705 42.306,0 0,0 -24.326,0.352 -28.204,1.41 -3.878,1.057 33.251,2.516 33.251,2.516 l -6.908,1.885 c 0,0 16.344,-0.054 19.028,0.042 2.683,0.096 13.951,-0.111 13.156,14.78 -0.797,14.89 -20.02,34.515 -19.278,55.029 0,0 59.994,24.164 109.607,4.368 C 50.953,37.078 8.566,-3.212 6.937,-3.911 5.307,-4.609 0,0 0,0"
             style="fill:#d6d113;fill-opacity:1;fill-rule:nonzero;stroke:none"
             id="path958" />
        </g>
        <g
           id="g964"
           transform="translate(1284.5825,1360.4502)">
          <path
             d="m 0,0 c 0,0 -46.041,-63.365 -32.822,-108.039 13.219,-44.674 14.937,-58.351 15.218,-61.085 0,0 10.069,-1.72 13.423,-1.384 0,0 1.341,11.735 0.839,17.771 0,0 3.332,-14.674 3.342,-17.815 h 1.52 c 0,0 0.837,7.754 1.005,12.617 0,0 4.527,-9.891 5.029,-11.568 0.505,-1.677 -3.411,17.363 3.306,62.307 0,0 2.051,13.736 0,22.724 0,0 -4.959,-24.321 -7.338,-39.654 0,0 0.929,42.828 7.338,55.253 0,0 -13.163,-28.261 -13.683,-59.747 0,0 -0.528,33.839 6.08,58.69 0,0 -10.574,-30.931 -11.367,-66.357 0,0 -1.173,51.525 10.31,77.724 0,0 -10.574,-17.448 -16.39,-43.356 0,0 1.257,37.17 13.748,57.368 0,0 -0.53,6.344 -0.53,8.725 0,2.378 -4.493,-8.725 -7.138,-11.104 0,0 5.816,15.597 6.61,19.034 0.792,3.437 0.264,5.642 0.264,5.642 l -5.552,-7.493 c 0,0 3.701,15.07 5.816,17.449 C 1.143,-9.918 0,0 0,0"
             style="fill:#97cc23;fill-opacity:1;fill-rule:nonzero;stroke:none"
             id="path962" />
        </g>
        <g
           id="g968"
           transform="translate(1362.3228,1295.3413)">
          <path
             d="m 0,0 c 0,0 4.954,-17.125 10.347,-22.375 11.142,-10.854 31.519,-32.584 36.154,-39.87 4.636,-7.285 24.104,-28.608 24.104,-28.608 0,0 33.939,13.907 36.437,18.079 2.5,4.171 -4.882,20.033 -2.957,27.348 0,0 4.495,-15.596 8.666,-16.819 0,0 -4.814,24.134 -2.566,31.515 0,0 2.245,-28.104 6.418,-31.704 0,0 -5.456,33.251 -2.247,42.267 0,0 0.321,-34.956 5.778,-39.769 0,0 -3.853,31.394 -2.568,39.769 0,0 2.889,-26.791 4.814,-31.195 v 7.794 c 0,0 1.604,-4.172 4.493,-5.456 0,0 -28.658,65.404 27,100.667 l -9.677,12.304 -5.835,-17.054 4.265,19.298 -2.693,3.141 -10.772,-30.293 8.079,33.21 -2.694,3.366 -14.361,-36.127 11.22,40.616 -3.142,3.589 -18.625,-54.527 15.709,58.118 -2.692,2.692 c 0,0 -22.45,-59.016 -25.812,-75.172 0,0 13.469,68.441 21.772,80.782 0,0 -18.626,-28.273 -26.479,-53.854 0,0 9.617,37.698 14.906,50.937 0,0 -18.945,-26.254 -23.433,-48.918 l 5.386,27.6 c 0,0 -9.425,-5.833 -14.361,-24.234 0,0 0.897,11.444 1.571,14.362 C 76.878,64.396 4.13,14.143 0,0"
             style="fill:#97cc23;fill-opacity:1;fill-rule:nonzero;stroke:none"
             id="path966" />
        </g>
        <g
           id="g972"
           transform="translate(1055.2954,1297.709)">
          <path
             d="m 0,0 c 0,0 -27.234,-38.53 41.789,-67.722 0,0 15.389,-5.24 27.981,-4.689 0,0 -8.23,-14.524 -26.035,-16.996 -17.807,-2.474 -35.86,-4.452 -54.655,26.708 0,0 -27.79,-73.362 125.738,-85.768 0,0 -26.575,5.142 -31.808,10.376 0,0 21.137,-5.033 31.808,-4.228 10.669,0.805 -23.756,6.844 -23.756,6.844 0,0 27.58,-1.208 21.742,8.054 -5.838,9.261 -23.352,27.983 -23.554,35.836 -0.201,7.85 10.97,13.277 10.97,13.277 l -3.717,1.352 c 0,0 4.055,1.014 6.758,0.676 0,0 -0.844,1.727 -2.534,2.046 -1.688,0.319 7.703,0.259 10.598,0 2.894,-0.259 9.32,0 9.32,0 0,0 -3.579,2.32 -7.778,2.32 -4.201,0 15.868,1.245 20.847,-0.156 4.977,-1.399 -4.716,2.466 -9.541,3.003 0,0 18.765,-0.805 21.982,-1.877 3.215,-1.074 -9.114,3.483 -16.889,3.753 0,0 27.88,-2.681 31.9,-4.021 4.022,-1.342 -14.743,4.021 -19.57,4.824 0,0 19.839,-2.412 24.665,-3.752 4.824,-1.341 -10.992,8.042 -26.004,7.238 0,0 19.301,1.698 30.739,-4.022 0,0 -9.532,7.148 -21.685,8.341 0,0 19.779,-2.145 24.067,-4.766 0,0 -3.097,6.91 -30.024,8.339 0,0 25.497,-0.237 28.118,-2.383 0,0 -6.433,6.672 -29.785,7.149 0,0 18.823,0.954 27.64,-1.905 0,0 3.575,4.765 -40.031,5.242 0,0 19.062,1.667 32.168,0.953 13.105,-0.715 -22.161,4.765 -48.849,-0.953 0,0 16.084,4.928 45.42,5.118 0,0 -0.94,2.256 -3.573,2.82 0,0 17.623,-1.655 24.939,-12.021 7.317,-10.364 -3.252,-19.11 -4.938,-20.29 -1.685,-1.179 -15.681,-3.141 -27.976,-3.664 -12.297,-0.523 -38.487,-0.101 -45.529,-7.414 -7.042,-7.314 -2.124,-20.864 25.542,-32.621 0,0 -10.657,2.753 -14.258,4.555 0,0 26.116,-13.508 34.402,-16.21 0,0 -22.515,7.745 -28.64,10.266 -6.122,2.522 23.596,-12.787 34.043,-16.03 0,0 -24.676,7.746 -31.159,10.627 -6.485,2.882 19.452,-11.348 26.296,-13.869 0,0 -15.025,4.412 -25.452,8.882 -10.426,4.467 14.895,-10.427 22.938,-12.81 0,0 -16.446,4.098 -20.905,6.901 -4.458,2.804 11.978,-11.085 25.612,-12.742 0,0 -8.537,1.402 -23.572,6.117 0,0 4.331,-7.899 25.101,-13.888 0,0 -17.584,3.439 -24.338,7.771 0,0 7.137,-7.9 21.916,-12.614 0,0 -15.035,3.059 -22.807,7.646 0,0 9.046,-8.029 16.947,-11.851 0,0 -10.704,3.568 -17.202,7.136 0,0 2.549,-5.606 7.9,-7.136 0,0 -7.517,0.891 -10.321,3.822 -2.804,2.931 -1.16,-5.834 -9.652,-15.151 -8.493,-9.314 56.659,-42.362 94.857,-46.703 38.194,-4.342 72.34,-3.763 80.153,-2.605 0,0 -0.118,-1.571 -3.889,-2.325 -3.77,-0.753 21.873,1.959 28.409,7.014 0,0 -7.793,-5.502 -14.078,-7.137 -6.285,-1.636 9.805,0.625 14.078,2.89 0,0 -1.157,-2.12 -4.727,-3.448 -3.569,-1.329 13.275,2.943 14.533,4.455 0,0 -2.013,-3.884 -5.029,-4.707 -3.017,-0.826 20.113,3.7 24.136,6.214 0,0 -2.378,-2.118 -3.396,-3.011 -1.017,-0.889 11.201,2.293 16.037,5.346 0,0 -3.055,-2.928 -3.946,-3.689 -0.89,-0.764 12.574,2.926 17.551,6.363 0,0 -1.896,-2.735 -3.169,-3.276 -1.274,-0.543 68.908,14.97 128.471,62.435 59.564,47.466 102.845,79.136 167.979,95.225 0,0 -0.486,1.749 -2.177,2.5 0,0 7.708,1.129 12.409,0.565 4.7,-0.565 -1.128,3.761 -1.128,3.761 0,0 12.035,-0.564 13.161,-1.129 1.13,-0.564 -4.325,2.821 -5.262,3.009 0,0 9.868,0.302 12.213,-0.551 2.345,-0.853 -2.026,2.238 -3.198,2.664 0,0 9.166,-1.065 9.809,-2.025 0.637,-0.959 0.53,4.264 -2.135,4.264 0,0 9.274,-0.533 11.086,-3.41 1.813,-2.879 -0.738,5.223 -3.514,5.648 0,0 8.442,-1.672 12.265,-5.044 3.823,-3.373 -1.348,4.498 -3.598,5.622 0,0 10.794,-3.148 11.695,-4.722 0.9,-1.575 0.449,4.272 -2.699,5.397 0,0 7.647,-2.25 11.019,-4.722 3.375,-2.475 -1.348,3.822 -3.148,5.171 0,0 8.996,-4.048 11.92,-6.746 2.923,-2.699 -0.45,4.498 0,5.847 0,0 7.197,-5.397 10.119,-7.646 2.926,-2.249 -1.348,5.171 -3.598,6.747 0,0 7.199,-5.173 8.546,-7.422 1.35,-2.249 0,6.297 -1.573,7.871 0,0 9.445,-7.871 11.019,-11.919 1.574,-4.048 -0.449,7.87 -2.474,11.47 0,0 6.646,-7.692 8.547,-13.495 1.901,-5.801 -0.225,9.671 -1.124,11.021 0,0 6.971,-12.82 8.321,-13.943 1.348,-1.125 -4.947,14.393 -2.699,35.533 2.249,21.139 5.397,34.183 4.722,35.759 -0.675,1.573 -5.558,5.093 -7.701,5.919 0,0 5.535,-0.826 7.793,-1.978 2.262,-1.153 -5.979,7.085 -9.275,8.404 0,0 6.801,-0.494 9.662,-1.319 2.861,-0.823 -5.707,4.121 -10.817,5.109 0,0 8.243,0 10.383,-1.483 2.143,-1.482 -8.569,5.768 -12.361,6.757 0,0 6.923,-0.33 9.724,-0.824 2.801,-0.495 -8.734,5.273 -14.336,6.097 0,0 8.567,-0.165 13.512,-1.648 4.944,-1.483 -5.931,4.615 -20.104,5.274 0,0 4.616,1.181 14.173,-0.659 9.554,-1.84 -6.32,4.23 -20.559,3.763 0,0 11.205,0.985 17.041,0.025 5.836,-0.959 -12.606,4.332 -33.15,2.97 0,0 12.139,2.141 25.679,1.207 13.54,-0.934 -31.748,4.902 -49.724,2.335 0,0 9.57,3.501 31.982,3.267 22.411,-0.233 -27.079,13.774 -140.07,-33.382 0,0 120.146,71.691 175.685,26.573 0,0 -3.509,7.78 -12.49,10.204 0,0 10.692,-2.566 12.83,-4.705 0,0 -3.991,5.702 -7.984,6.557 0,0 5.704,-0.284 7.414,-1.852 1.711,-1.569 -6.473,21.522 -77.5,9.83 C 628.623,54.309 538.229,-6.673 538.229,-6.673 c 0,0 -94.968,-66.05 -119.67,-78.841 -24.702,-12.791 -45.538,-27.726 -131.449,-33.057 -85.911,-5.33 -131.971,8.031 -138.787,10.76 -6.815,2.729 -36.514,16.479 -39.264,20.329 -2.75,3.85 7.05,8.502 11.538,9.029 4.487,0.527 42.724,0.698 42.724,0.698 0,0 -42.341,0.349 -46.348,-5.227 -4.008,-5.577 3.136,4.355 39.03,2.264 0,0 -33.373,-0.522 -36.242,-6.272 -2.87,-5.749 17.947,2.092 22.825,2.092 0,0 -17.773,-4.357 -16.553,-5.576 1.22,-1.22 8.712,0.871 12.545,0.522 0,0 -11.118,-1.888 -7.629,-3.052 3.488,-1.162 62.458,-17.109 66.279,-12.291 0,0 1.081,1.659 -0.022,6.808 -1.103,5.149 -3.673,-6.457 -7.338,-6.8 0,0 5.586,8.571 5.586,11.17 0,2.597 -8.26,-9.996 -14.677,-9.742 0,0 13.489,8.962 13.303,15.845 -0.185,6.884 -3.226,-14.975 -35.021,-11.29 0,0 34.748,3.786 33.826,18.38 -0.921,14.592 4.525,-19.714 -38.458,-14.544 0,0 31.695,-2.489 36.96,19.532 0,0 -6.863,-20.711 -39.733,-14.36 0,0 29.879,-2.72 38.014,14.816 0,0 0.867,2.233 0.112,5.794 -0.755,3.56 -5.123,29.488 -6.979,34.09 -1.855,4.604 -13.56,12.033 -18.451,13.061 -5.709,1.2 -15.791,1.395 -22.1,0.849 C 135.941,-22.23 84.919,-35.098 59.554,-35.596 34.191,-36.092 2.101,-27.938 0,0"
             style="fill:#d6d113;fill-opacity:1;fill-rule:nonzero;stroke:none"
             id="path970" />
        </g>
      </g>
    </g>
    <text
       xml:space="preserve"
       style="font-style:normal;font-variant:normal;font-weight:bold;font-stretch:normal;font-size:99.9997px;font-family:'.Aqua Kana';-inkscape-font-specification:'.Aqua Kana Bold';fill:#000000;stroke-width:0.75"
       x="1043.8413"
       y="-1370.5349"
       id="text2476"
       transform="matrix(0.99050006,-0.13751233,-0.13751233,-0.99050006,0,0)"><tspan
         id="tspan2474"
         style="font-style:normal;font-variant:normal;font-weight:bold;font-stretch:normal;font-family:'.Aqua Kana';-inkscape-font-specification:'.Aqua Kana Bold';stroke-width:0.75"
         x="1043.8413"
         y="-1370.5349">e</tspan></text>
    <text
       xml:space="preserve"
       style="font-style:normal;font-variant:normal;font-weight:bold;font-stretch:normal;font-size:99.9997px;font-family:'.Aqua Kana';-inkscape-font-specification:'.Aqua Kana Bold';fill:#000000;stroke-width:0.75"
       x="1328.6017"
       y="-1182.3853"
       id="text2529"
       transform="matrix(0.99983409,0.0182151,0.0182151,-0.99983409,0,0)"><tspan
         id="tspan2527"
         style="stroke-width:0.75"
         x="1328.6017"
         y="-1182.3853">s</tspan></text>
    <text
       xml:space="preserve"
       style="font-style:normal;font-variant:normal;font-weight:bold;font-stretch:normal;font-size:99.9997px;font-family:'.Aqua Kana';-inkscape-font-specification:'.Aqua Kana Bold';fill:#000000;stroke-width:0.75"
       x="1618.432"
       y="-896.29144"
       id="text2533"
       transform="matrix(0.97801179,0.20854959,0.20854959,-0.97801179,0,0)"><tspan
         id="tspan2531"
         style="stroke-width:0.75"
         x="1618.432"
         y="-896.29144">t.</tspan></text>
    <text
       xml:space="preserve"
       style="font-style:normal;font-variant:normal;font-weight:bold;font-stretch:normal;font-size:99.9997px;font-family:'.Aqua Kana';-inkscape-font-specification:'.Aqua Kana Bold';fill:#000000;stroke-width:0.75"
       x="1941.9167"
       y="-190.89713"
       id="text2537"
       transform="matrix(0.82767555,0.56120691,0.56120691,-0.82767555,0,0)"><tspan
         id="tspan2535"
         style="stroke-width:0.75"
         x="1941.9167"
         y="-190.89713">2</tspan></text>
    <text
       xml:space="preserve"
       style="font-style:normal;font-variant:normal;font-weight:bold;font-stretch:normal;font-size:99.9997px;font-family:'.Aqua Kana';-inkscape-font-specification:'.Aqua Kana Bold';fill:#000000;stroke-width:0.75"
       x="2006.2745"
       y="-357.76404"
       id="text2541"
       transform="matrix(0.87086049,0.49153027,0.49153027,-0.87086049,0,0)"><tspan
         id="tspan2539"
         style="stroke-width:0.75"
         x="2006.2745"
         y="-357.76404">0</tspan></text>
    <text
       xml:space="preserve"
       style="font-style:normal;font-variant:normal;font-weight:bold;font-stretch:normal;font-size:99.9997px;font-family:'.Aqua Kana';-inkscape-font-specification:'.Aqua Kana Bold';fill:#000000;stroke-width:0.75"
       x="2045.8904"
       y="-499.82642"
       id="text2545"
       transform="matrix(0.90248911,0.43071267,0.43071267,-0.90248911,0,0)"><tspan
         id="tspan2543"
         style="stroke-width:0.75"
         x="2045.8904"
         y="-499.82642">1</tspan></text>
    <text
       xml:space="preserve"
       style="font-style:normal;font-variant:normal;font-weight:bold;font-stretch:normal;font-size:99.9997px;font-family:'.Aqua Kana';-inkscape-font-specification:'.Aqua Kana Bold';fill:#000000;stroke-width:0.75"
       x="1976.348"
       y="-867.84259"
       id="text2549"
       transform="matrix(0.96493066,0.2625049,0.2625049,-0.96493066,0,0)"><tspan
         id="tspan2547"
         style="stroke-width:0.75"
         x="1976.348"
         y="-867.84259">6</tspan></text>
  </g>
</svg>
